G04 #@! TF.GenerationSoftware,KiCad,Pcbnew,(5.1.0)-1*
G04 #@! TF.CreationDate,2019-04-29T13:19:31-04:00*
G04 #@! TF.ProjectId,ifx9201sg-h-bridge-board,69667839-3230-4317-9367-2d682d627269,--*
G04 #@! TF.SameCoordinates,Original*
G04 #@! TF.FileFunction,Copper,L2,Bot*
G04 #@! TF.FilePolarity,Positive*
%FSLAX46Y46*%
G04 Gerber Fmt 4.6, Leading zero omitted, Abs format (unit mm)*
G04 Created by KiCad (PCBNEW (5.1.0)-1) date 2019-04-29 13:19:31*
%MOMM*%
%LPD*%
G04 APERTURE LIST*
%ADD10O,1.700000X1.700000*%
%ADD11R,1.700000X1.700000*%
%ADD12C,2.300000*%
%ADD13O,1.700000X1.200000*%
%ADD14R,1.700000X1.200000*%
%ADD15C,0.800000*%
%ADD16C,0.250000*%
%ADD17C,0.254000*%
G04 APERTURE END LIST*
D10*
X128016000Y-100330000D03*
X128016000Y-102870000D03*
X128016000Y-105410000D03*
X128016000Y-107950000D03*
X128016000Y-110490000D03*
D11*
X128016000Y-113030000D03*
D12*
X161925000Y-93345000D03*
X166925000Y-93345000D03*
D13*
X172720000Y-111092000D03*
X172720000Y-109092000D03*
X172720000Y-107092000D03*
X172720000Y-105092000D03*
X172720000Y-103092000D03*
D14*
X172720000Y-101092000D03*
D15*
X133350000Y-95250000D03*
X133350000Y-97155000D03*
X139065000Y-99060000D03*
X146050000Y-106045000D03*
X144780000Y-107950000D03*
X133350000Y-108585000D03*
X133350000Y-113665000D03*
X146050000Y-115570000D03*
X149860000Y-116205000D03*
X153670000Y-113030000D03*
X168201306Y-113649101D03*
X173355000Y-115570000D03*
X169545000Y-97245000D03*
X157480000Y-97155000D03*
X158750000Y-104140000D03*
X164465000Y-102870000D03*
X130810000Y-94615000D03*
X160044600Y-116229600D03*
X158948001Y-112395000D03*
X163195000Y-109945000D03*
X163195000Y-116205000D03*
X158948001Y-113665000D03*
X164465000Y-112395000D03*
X164465000Y-113665000D03*
X160020000Y-109855000D03*
X155575000Y-115570000D03*
X158948001Y-111125000D03*
X158948001Y-114935000D03*
X164465000Y-114935000D03*
X164465000Y-111125000D03*
X126365000Y-96520000D03*
X154940000Y-99060000D03*
X144145000Y-95885000D03*
X150495000Y-100965000D03*
X153670000Y-116205000D03*
X146685000Y-112395000D03*
X166370000Y-109220000D03*
X159385000Y-96520000D03*
X159838347Y-104321653D03*
X139700000Y-110490000D03*
X137795000Y-114935000D03*
D16*
X126365000Y-96520000D02*
X126365000Y-94615000D01*
X128360001Y-92619999D02*
X153579999Y-92619999D01*
X126365000Y-94615000D02*
X128360001Y-92619999D01*
X153579999Y-92619999D02*
X154940000Y-93980000D01*
X154940000Y-93980000D02*
X154940000Y-99060000D01*
X144145000Y-95885000D02*
X145415000Y-95885000D01*
X145415000Y-95885000D02*
X150495000Y-100965000D01*
X153670000Y-116205000D02*
X154940000Y-117475000D01*
X154940000Y-117475000D02*
X173355000Y-117475000D01*
X172970000Y-109092000D02*
X172720000Y-109092000D01*
X174080001Y-110202001D02*
X172970000Y-109092000D01*
X174080001Y-116749999D02*
X174080001Y-110202001D01*
X173355000Y-117475000D02*
X174080001Y-116749999D01*
X165804315Y-109220000D02*
X166370000Y-109220000D01*
X146685000Y-112395000D02*
X150025401Y-109054599D01*
X161093002Y-109220000D02*
X165804315Y-109220000D01*
X160927601Y-109054599D02*
X161093002Y-109220000D01*
X150025401Y-109054599D02*
X160927601Y-109054599D01*
X151344999Y-104560001D02*
X159385000Y-96520000D01*
X128016000Y-105410000D02*
X128865999Y-104560001D01*
X128865999Y-104560001D02*
X151344999Y-104560001D01*
X157059999Y-107100001D02*
X159838347Y-104321653D01*
X128016000Y-107950000D02*
X128865999Y-107100001D01*
X128865999Y-107100001D02*
X157059999Y-107100001D01*
X128016000Y-110490000D02*
X139700000Y-110490000D01*
X128821000Y-114935000D02*
X137795000Y-114935000D01*
X128016000Y-113030000D02*
X128016000Y-114130000D01*
X128016000Y-114130000D02*
X128821000Y-114935000D01*
D17*
G36*
X161404335Y-91628596D02*
G01*
X161079485Y-91763153D01*
X160787129Y-91958500D01*
X160538500Y-92207129D01*
X160343153Y-92499485D01*
X160208596Y-92824335D01*
X160140000Y-93169193D01*
X160140000Y-93520807D01*
X160208596Y-93865665D01*
X160343153Y-94190515D01*
X160538500Y-94482871D01*
X160787129Y-94731500D01*
X161079485Y-94926847D01*
X161404335Y-95061404D01*
X161749193Y-95130000D01*
X162100807Y-95130000D01*
X162445665Y-95061404D01*
X162770515Y-94926847D01*
X163062871Y-94731500D01*
X163207022Y-94587349D01*
X165862256Y-94587349D01*
X165976118Y-94867090D01*
X166291296Y-95022961D01*
X166630826Y-95114349D01*
X166981661Y-95137741D01*
X167330319Y-95092240D01*
X167663400Y-94979594D01*
X167873882Y-94867090D01*
X167987744Y-94587349D01*
X166925000Y-93524605D01*
X165862256Y-94587349D01*
X163207022Y-94587349D01*
X163311500Y-94482871D01*
X163506847Y-94190515D01*
X163641404Y-93865665D01*
X163710000Y-93520807D01*
X163710000Y-93401661D01*
X165132259Y-93401661D01*
X165177760Y-93750319D01*
X165290406Y-94083400D01*
X165402910Y-94293882D01*
X165682651Y-94407744D01*
X166745395Y-93345000D01*
X167104605Y-93345000D01*
X168167349Y-94407744D01*
X168447090Y-94293882D01*
X168602961Y-93978704D01*
X168694349Y-93639174D01*
X168717741Y-93288339D01*
X168672240Y-92939681D01*
X168559594Y-92606600D01*
X168447090Y-92396118D01*
X168167349Y-92282256D01*
X167104605Y-93345000D01*
X166745395Y-93345000D01*
X165682651Y-92282256D01*
X165402910Y-92396118D01*
X165247039Y-92711296D01*
X165155651Y-93050826D01*
X165132259Y-93401661D01*
X163710000Y-93401661D01*
X163710000Y-93169193D01*
X163641404Y-92824335D01*
X163506847Y-92499485D01*
X163311500Y-92207129D01*
X163062871Y-91958500D01*
X162770515Y-91763153D01*
X162445665Y-91628596D01*
X162135999Y-91567000D01*
X166755384Y-91567000D01*
X166519681Y-91597760D01*
X166186600Y-91710406D01*
X165976118Y-91822910D01*
X165862256Y-92102651D01*
X166925000Y-93165395D01*
X167987744Y-92102651D01*
X167873882Y-91822910D01*
X167558704Y-91667039D01*
X167219174Y-91575651D01*
X167089426Y-91567000D01*
X174498000Y-91567000D01*
X174498000Y-109545197D01*
X174196076Y-109243274D01*
X174210975Y-109092000D01*
X174187130Y-108849898D01*
X174116511Y-108617099D01*
X174001833Y-108402551D01*
X173847502Y-108214498D01*
X173698238Y-108092000D01*
X173847502Y-107969502D01*
X174001833Y-107781449D01*
X174116511Y-107566901D01*
X174187130Y-107334102D01*
X174210975Y-107092000D01*
X174187130Y-106849898D01*
X174116511Y-106617099D01*
X174001833Y-106402551D01*
X173847502Y-106214498D01*
X173705022Y-106097568D01*
X173722276Y-106087009D01*
X173901938Y-105921128D01*
X174045786Y-105723384D01*
X174148292Y-105501377D01*
X174163462Y-105409609D01*
X174038731Y-105219000D01*
X172847000Y-105219000D01*
X172847000Y-105239000D01*
X172593000Y-105239000D01*
X172593000Y-105219000D01*
X171401269Y-105219000D01*
X171276538Y-105409609D01*
X171291708Y-105501377D01*
X171394214Y-105723384D01*
X171538062Y-105921128D01*
X171717724Y-106087009D01*
X171734978Y-106097568D01*
X171592498Y-106214498D01*
X171438167Y-106402551D01*
X171323489Y-106617099D01*
X171252870Y-106849898D01*
X171229025Y-107092000D01*
X171252870Y-107334102D01*
X171323489Y-107566901D01*
X171438167Y-107781449D01*
X171592498Y-107969502D01*
X171741762Y-108092000D01*
X171592498Y-108214498D01*
X171438167Y-108402551D01*
X171323489Y-108617099D01*
X171252870Y-108849898D01*
X171229025Y-109092000D01*
X171252870Y-109334102D01*
X171323489Y-109566901D01*
X171438167Y-109781449D01*
X171592498Y-109969502D01*
X171741762Y-110092000D01*
X171592498Y-110214498D01*
X171438167Y-110402551D01*
X171323489Y-110617099D01*
X171252870Y-110849898D01*
X171229025Y-111092000D01*
X171252870Y-111334102D01*
X171323489Y-111566901D01*
X171438167Y-111781449D01*
X171592498Y-111969502D01*
X171780551Y-112123833D01*
X171995099Y-112238511D01*
X172227898Y-112309130D01*
X172409335Y-112327000D01*
X173030665Y-112327000D01*
X173212102Y-112309130D01*
X173320002Y-112276399D01*
X173320001Y-116435197D01*
X173040199Y-116715000D01*
X155254802Y-116715000D01*
X154705000Y-116165199D01*
X154705000Y-116103061D01*
X154665226Y-115903102D01*
X154587205Y-115714744D01*
X154473937Y-115545226D01*
X154329774Y-115401063D01*
X154160256Y-115287795D01*
X153971898Y-115209774D01*
X153771939Y-115170000D01*
X153568061Y-115170000D01*
X153368102Y-115209774D01*
X153179744Y-115287795D01*
X153010226Y-115401063D01*
X152866063Y-115545226D01*
X152752795Y-115714744D01*
X152674774Y-115903102D01*
X152635000Y-116103061D01*
X152635000Y-116306939D01*
X152674774Y-116506898D01*
X152752795Y-116695256D01*
X152866063Y-116864774D01*
X153010226Y-117008937D01*
X153179744Y-117122205D01*
X153368102Y-117200226D01*
X153568061Y-117240000D01*
X153630199Y-117240000D01*
X153738198Y-117348000D01*
X124587000Y-117348000D01*
X124587000Y-99973110D01*
X126574524Y-99973110D01*
X126695845Y-100203000D01*
X127889000Y-100203000D01*
X127889000Y-99009186D01*
X128143000Y-99009186D01*
X128143000Y-100203000D01*
X129336155Y-100203000D01*
X129457476Y-99973110D01*
X129412825Y-99825901D01*
X129287641Y-99563080D01*
X129113588Y-99329731D01*
X128897355Y-99134822D01*
X128647252Y-98985843D01*
X128372891Y-98888519D01*
X128143000Y-99009186D01*
X127889000Y-99009186D01*
X127659109Y-98888519D01*
X127384748Y-98985843D01*
X127134645Y-99134822D01*
X126918412Y-99329731D01*
X126744359Y-99563080D01*
X126619175Y-99825901D01*
X126574524Y-99973110D01*
X124587000Y-99973110D01*
X124587000Y-96418061D01*
X125330000Y-96418061D01*
X125330000Y-96621939D01*
X125369774Y-96821898D01*
X125447795Y-97010256D01*
X125561063Y-97179774D01*
X125705226Y-97323937D01*
X125874744Y-97437205D01*
X126063102Y-97515226D01*
X126263061Y-97555000D01*
X126466939Y-97555000D01*
X126666898Y-97515226D01*
X126855256Y-97437205D01*
X127024774Y-97323937D01*
X127168937Y-97179774D01*
X127282205Y-97010256D01*
X127360226Y-96821898D01*
X127400000Y-96621939D01*
X127400000Y-96418061D01*
X127360226Y-96218102D01*
X127282205Y-96029744D01*
X127168937Y-95860226D01*
X127125000Y-95816289D01*
X127125000Y-95783061D01*
X143110000Y-95783061D01*
X143110000Y-95986939D01*
X143149774Y-96186898D01*
X143227795Y-96375256D01*
X143341063Y-96544774D01*
X143485226Y-96688937D01*
X143654744Y-96802205D01*
X143843102Y-96880226D01*
X144043061Y-96920000D01*
X144246939Y-96920000D01*
X144446898Y-96880226D01*
X144635256Y-96802205D01*
X144804774Y-96688937D01*
X144848711Y-96645000D01*
X145100199Y-96645000D01*
X149460000Y-101004802D01*
X149460000Y-101066939D01*
X149499774Y-101266898D01*
X149577795Y-101455256D01*
X149691063Y-101624774D01*
X149835226Y-101768937D01*
X150004744Y-101882205D01*
X150193102Y-101960226D01*
X150393061Y-102000000D01*
X150596939Y-102000000D01*
X150796898Y-101960226D01*
X150985256Y-101882205D01*
X151154774Y-101768937D01*
X151298937Y-101624774D01*
X151412205Y-101455256D01*
X151490226Y-101266898D01*
X151530000Y-101066939D01*
X151530000Y-100863061D01*
X151490226Y-100663102D01*
X151412205Y-100474744D01*
X151298937Y-100305226D01*
X151154774Y-100161063D01*
X150985256Y-100047795D01*
X150796898Y-99969774D01*
X150596939Y-99930000D01*
X150534802Y-99930000D01*
X145978804Y-95374003D01*
X145955001Y-95344999D01*
X145839276Y-95250026D01*
X145707247Y-95179454D01*
X145563986Y-95135997D01*
X145452333Y-95125000D01*
X145452322Y-95125000D01*
X145415000Y-95121324D01*
X145377678Y-95125000D01*
X144848711Y-95125000D01*
X144804774Y-95081063D01*
X144635256Y-94967795D01*
X144446898Y-94889774D01*
X144246939Y-94850000D01*
X144043061Y-94850000D01*
X143843102Y-94889774D01*
X143654744Y-94967795D01*
X143485226Y-95081063D01*
X143341063Y-95225226D01*
X143227795Y-95394744D01*
X143149774Y-95583102D01*
X143110000Y-95783061D01*
X127125000Y-95783061D01*
X127125000Y-94929801D01*
X128674804Y-93379999D01*
X153265198Y-93379999D01*
X154180000Y-94294802D01*
X154180001Y-98356288D01*
X154136063Y-98400226D01*
X154022795Y-98569744D01*
X153944774Y-98758102D01*
X153905000Y-98958061D01*
X153905000Y-99161939D01*
X153944774Y-99361898D01*
X154022795Y-99550256D01*
X154136063Y-99719774D01*
X154280226Y-99863937D01*
X154449744Y-99977205D01*
X154638102Y-100055226D01*
X154752264Y-100077934D01*
X151030198Y-103800001D01*
X129173828Y-103800001D01*
X129256706Y-103699014D01*
X129394599Y-103441034D01*
X129479513Y-103161111D01*
X129508185Y-102870000D01*
X129479513Y-102578889D01*
X129394599Y-102298966D01*
X129256706Y-102040986D01*
X129071134Y-101814866D01*
X128845014Y-101629294D01*
X128780477Y-101594799D01*
X128897355Y-101525178D01*
X129113588Y-101330269D01*
X129287641Y-101096920D01*
X129412825Y-100834099D01*
X129457476Y-100686890D01*
X129336155Y-100457000D01*
X128143000Y-100457000D01*
X128143000Y-100477000D01*
X127889000Y-100477000D01*
X127889000Y-100457000D01*
X126695845Y-100457000D01*
X126574524Y-100686890D01*
X126619175Y-100834099D01*
X126744359Y-101096920D01*
X126918412Y-101330269D01*
X127134645Y-101525178D01*
X127251523Y-101594799D01*
X127186986Y-101629294D01*
X126960866Y-101814866D01*
X126775294Y-102040986D01*
X126637401Y-102298966D01*
X126552487Y-102578889D01*
X126523815Y-102870000D01*
X126552487Y-103161111D01*
X126637401Y-103441034D01*
X126775294Y-103699014D01*
X126960866Y-103925134D01*
X127186986Y-104110706D01*
X127241791Y-104140000D01*
X127186986Y-104169294D01*
X126960866Y-104354866D01*
X126775294Y-104580986D01*
X126637401Y-104838966D01*
X126552487Y-105118889D01*
X126523815Y-105410000D01*
X126552487Y-105701111D01*
X126637401Y-105981034D01*
X126775294Y-106239014D01*
X126960866Y-106465134D01*
X127186986Y-106650706D01*
X127241791Y-106680000D01*
X127186986Y-106709294D01*
X126960866Y-106894866D01*
X126775294Y-107120986D01*
X126637401Y-107378966D01*
X126552487Y-107658889D01*
X126523815Y-107950000D01*
X126552487Y-108241111D01*
X126637401Y-108521034D01*
X126775294Y-108779014D01*
X126960866Y-109005134D01*
X127186986Y-109190706D01*
X127241791Y-109220000D01*
X127186986Y-109249294D01*
X126960866Y-109434866D01*
X126775294Y-109660986D01*
X126637401Y-109918966D01*
X126552487Y-110198889D01*
X126523815Y-110490000D01*
X126552487Y-110781111D01*
X126637401Y-111061034D01*
X126775294Y-111319014D01*
X126960866Y-111545134D01*
X126990687Y-111569607D01*
X126921820Y-111590498D01*
X126811506Y-111649463D01*
X126714815Y-111728815D01*
X126635463Y-111825506D01*
X126576498Y-111935820D01*
X126540188Y-112055518D01*
X126527928Y-112180000D01*
X126527928Y-113880000D01*
X126540188Y-114004482D01*
X126576498Y-114124180D01*
X126635463Y-114234494D01*
X126714815Y-114331185D01*
X126811506Y-114410537D01*
X126921820Y-114469502D01*
X127041518Y-114505812D01*
X127166000Y-114518072D01*
X127361674Y-114518072D01*
X127381026Y-114554276D01*
X127445718Y-114633102D01*
X127476000Y-114670001D01*
X127504998Y-114693799D01*
X128257201Y-115446002D01*
X128280999Y-115475001D01*
X128309997Y-115498799D01*
X128396723Y-115569974D01*
X128528753Y-115640546D01*
X128672014Y-115684003D01*
X128783667Y-115695000D01*
X128783677Y-115695000D01*
X128821000Y-115698676D01*
X128858323Y-115695000D01*
X137091289Y-115695000D01*
X137135226Y-115738937D01*
X137304744Y-115852205D01*
X137493102Y-115930226D01*
X137693061Y-115970000D01*
X137896939Y-115970000D01*
X138096898Y-115930226D01*
X138285256Y-115852205D01*
X138454774Y-115738937D01*
X138598937Y-115594774D01*
X138712205Y-115425256D01*
X138790226Y-115236898D01*
X138830000Y-115036939D01*
X138830000Y-114833061D01*
X138790226Y-114633102D01*
X138712205Y-114444744D01*
X138598937Y-114275226D01*
X138454774Y-114131063D01*
X138285256Y-114017795D01*
X138096898Y-113939774D01*
X137896939Y-113900000D01*
X137693061Y-113900000D01*
X137493102Y-113939774D01*
X137304744Y-114017795D01*
X137135226Y-114131063D01*
X137091289Y-114175000D01*
X129428338Y-114175000D01*
X129455502Y-114124180D01*
X129491812Y-114004482D01*
X129504072Y-113880000D01*
X129504072Y-112293061D01*
X145650000Y-112293061D01*
X145650000Y-112496939D01*
X145689774Y-112696898D01*
X145767795Y-112885256D01*
X145881063Y-113054774D01*
X146025226Y-113198937D01*
X146194744Y-113312205D01*
X146383102Y-113390226D01*
X146583061Y-113430000D01*
X146786939Y-113430000D01*
X146986898Y-113390226D01*
X147175256Y-113312205D01*
X147344774Y-113198937D01*
X147488937Y-113054774D01*
X147602205Y-112885256D01*
X147680226Y-112696898D01*
X147720000Y-112496939D01*
X147720000Y-112434801D01*
X150340204Y-109814599D01*
X160619529Y-109814599D01*
X160668726Y-109854974D01*
X160800755Y-109925546D01*
X160944016Y-109969003D01*
X161055669Y-109980000D01*
X161055678Y-109980000D01*
X161093001Y-109983676D01*
X161130324Y-109980000D01*
X165666289Y-109980000D01*
X165710226Y-110023937D01*
X165879744Y-110137205D01*
X166068102Y-110215226D01*
X166268061Y-110255000D01*
X166471939Y-110255000D01*
X166671898Y-110215226D01*
X166860256Y-110137205D01*
X167029774Y-110023937D01*
X167173937Y-109879774D01*
X167287205Y-109710256D01*
X167365226Y-109521898D01*
X167405000Y-109321939D01*
X167405000Y-109118061D01*
X167365226Y-108918102D01*
X167287205Y-108729744D01*
X167173937Y-108560226D01*
X167029774Y-108416063D01*
X166860256Y-108302795D01*
X166671898Y-108224774D01*
X166471939Y-108185000D01*
X166268061Y-108185000D01*
X166068102Y-108224774D01*
X165879744Y-108302795D01*
X165710226Y-108416063D01*
X165666289Y-108460000D01*
X161401074Y-108460000D01*
X161351877Y-108419625D01*
X161219848Y-108349053D01*
X161076587Y-108305596D01*
X160964934Y-108294599D01*
X160964923Y-108294599D01*
X160927601Y-108290923D01*
X160890279Y-108294599D01*
X150062723Y-108294599D01*
X150025400Y-108290923D01*
X149988077Y-108294599D01*
X149988068Y-108294599D01*
X149876415Y-108305596D01*
X149733154Y-108349053D01*
X149601125Y-108419625D01*
X149601123Y-108419626D01*
X149601124Y-108419626D01*
X149514397Y-108490800D01*
X149514393Y-108490804D01*
X149485400Y-108514598D01*
X149461606Y-108543591D01*
X146645199Y-111360000D01*
X146583061Y-111360000D01*
X146383102Y-111399774D01*
X146194744Y-111477795D01*
X146025226Y-111591063D01*
X145881063Y-111735226D01*
X145767795Y-111904744D01*
X145689774Y-112093102D01*
X145650000Y-112293061D01*
X129504072Y-112293061D01*
X129504072Y-112180000D01*
X129491812Y-112055518D01*
X129455502Y-111935820D01*
X129396537Y-111825506D01*
X129317185Y-111728815D01*
X129220494Y-111649463D01*
X129110180Y-111590498D01*
X129041313Y-111569607D01*
X129071134Y-111545134D01*
X129256706Y-111319014D01*
X129293595Y-111250000D01*
X138996289Y-111250000D01*
X139040226Y-111293937D01*
X139209744Y-111407205D01*
X139398102Y-111485226D01*
X139598061Y-111525000D01*
X139801939Y-111525000D01*
X140001898Y-111485226D01*
X140190256Y-111407205D01*
X140359774Y-111293937D01*
X140503937Y-111149774D01*
X140617205Y-110980256D01*
X140695226Y-110791898D01*
X140735000Y-110591939D01*
X140735000Y-110388061D01*
X140695226Y-110188102D01*
X140617205Y-109999744D01*
X140503937Y-109830226D01*
X140359774Y-109686063D01*
X140190256Y-109572795D01*
X140001898Y-109494774D01*
X139801939Y-109455000D01*
X139598061Y-109455000D01*
X139398102Y-109494774D01*
X139209744Y-109572795D01*
X139040226Y-109686063D01*
X138996289Y-109730000D01*
X129293595Y-109730000D01*
X129256706Y-109660986D01*
X129071134Y-109434866D01*
X128845014Y-109249294D01*
X128790209Y-109220000D01*
X128845014Y-109190706D01*
X129071134Y-109005134D01*
X129256706Y-108779014D01*
X129394599Y-108521034D01*
X129479513Y-108241111D01*
X129508185Y-107950000D01*
X129499321Y-107860001D01*
X157022677Y-107860001D01*
X157059999Y-107863677D01*
X157097321Y-107860001D01*
X157097332Y-107860001D01*
X157208985Y-107849004D01*
X157352246Y-107805547D01*
X157484275Y-107734975D01*
X157600000Y-107640002D01*
X157623803Y-107610998D01*
X159878150Y-105356653D01*
X159940286Y-105356653D01*
X160140245Y-105316879D01*
X160328603Y-105238858D01*
X160498121Y-105125590D01*
X160642284Y-104981427D01*
X160755552Y-104811909D01*
X160833573Y-104623551D01*
X160873347Y-104423592D01*
X160873347Y-104219714D01*
X160833573Y-104019755D01*
X160755552Y-103831397D01*
X160642284Y-103661879D01*
X160498121Y-103517716D01*
X160328603Y-103404448D01*
X160140245Y-103326427D01*
X159940286Y-103286653D01*
X159736408Y-103286653D01*
X159536449Y-103326427D01*
X159348091Y-103404448D01*
X159178573Y-103517716D01*
X159034410Y-103661879D01*
X158921142Y-103831397D01*
X158843121Y-104019755D01*
X158803347Y-104219714D01*
X158803347Y-104281850D01*
X156745198Y-106340001D01*
X129173828Y-106340001D01*
X129256706Y-106239014D01*
X129394599Y-105981034D01*
X129479513Y-105701111D01*
X129508185Y-105410000D01*
X129499321Y-105320001D01*
X151307677Y-105320001D01*
X151344999Y-105323677D01*
X151382321Y-105320001D01*
X151382332Y-105320001D01*
X151493985Y-105309004D01*
X151637246Y-105265547D01*
X151769275Y-105194975D01*
X151885000Y-105100002D01*
X151908803Y-105070998D01*
X153887801Y-103092000D01*
X171229025Y-103092000D01*
X171252870Y-103334102D01*
X171323489Y-103566901D01*
X171438167Y-103781449D01*
X171592498Y-103969502D01*
X171734978Y-104086432D01*
X171717724Y-104096991D01*
X171538062Y-104262872D01*
X171394214Y-104460616D01*
X171291708Y-104682623D01*
X171276538Y-104774391D01*
X171401269Y-104965000D01*
X172593000Y-104965000D01*
X172593000Y-104945000D01*
X172847000Y-104945000D01*
X172847000Y-104965000D01*
X174038731Y-104965000D01*
X174163462Y-104774391D01*
X174148292Y-104682623D01*
X174045786Y-104460616D01*
X173901938Y-104262872D01*
X173722276Y-104096991D01*
X173705022Y-104086432D01*
X173847502Y-103969502D01*
X174001833Y-103781449D01*
X174116511Y-103566901D01*
X174187130Y-103334102D01*
X174210975Y-103092000D01*
X174187130Y-102849898D01*
X174116511Y-102617099D01*
X174001833Y-102402551D01*
X173875564Y-102248691D01*
X173924494Y-102222537D01*
X174021185Y-102143185D01*
X174100537Y-102046494D01*
X174159502Y-101936180D01*
X174195812Y-101816482D01*
X174208072Y-101692000D01*
X174208072Y-100492000D01*
X174195812Y-100367518D01*
X174159502Y-100247820D01*
X174100537Y-100137506D01*
X174021185Y-100040815D01*
X173924494Y-99961463D01*
X173814180Y-99902498D01*
X173694482Y-99866188D01*
X173570000Y-99853928D01*
X171870000Y-99853928D01*
X171745518Y-99866188D01*
X171625820Y-99902498D01*
X171515506Y-99961463D01*
X171418815Y-100040815D01*
X171339463Y-100137506D01*
X171280498Y-100247820D01*
X171244188Y-100367518D01*
X171231928Y-100492000D01*
X171231928Y-101692000D01*
X171244188Y-101816482D01*
X171280498Y-101936180D01*
X171339463Y-102046494D01*
X171418815Y-102143185D01*
X171515506Y-102222537D01*
X171564436Y-102248691D01*
X171438167Y-102402551D01*
X171323489Y-102617099D01*
X171252870Y-102849898D01*
X171229025Y-103092000D01*
X153887801Y-103092000D01*
X159424803Y-97555000D01*
X159486939Y-97555000D01*
X159686898Y-97515226D01*
X159875256Y-97437205D01*
X160044774Y-97323937D01*
X160188937Y-97179774D01*
X160302205Y-97010256D01*
X160380226Y-96821898D01*
X160420000Y-96621939D01*
X160420000Y-96418061D01*
X160380226Y-96218102D01*
X160302205Y-96029744D01*
X160188937Y-95860226D01*
X160044774Y-95716063D01*
X159875256Y-95602795D01*
X159686898Y-95524774D01*
X159486939Y-95485000D01*
X159283061Y-95485000D01*
X159083102Y-95524774D01*
X158894744Y-95602795D01*
X158725226Y-95716063D01*
X158581063Y-95860226D01*
X158467795Y-96029744D01*
X158389774Y-96218102D01*
X158350000Y-96418061D01*
X158350000Y-96480197D01*
X155957934Y-98872264D01*
X155935226Y-98758102D01*
X155857205Y-98569744D01*
X155743937Y-98400226D01*
X155700000Y-98356289D01*
X155700000Y-94017323D01*
X155703676Y-93980000D01*
X155700000Y-93942677D01*
X155700000Y-93942667D01*
X155689003Y-93831014D01*
X155645546Y-93687753D01*
X155574974Y-93555724D01*
X155480001Y-93439999D01*
X155451004Y-93416202D01*
X154143803Y-92109002D01*
X154120000Y-92079998D01*
X154004275Y-91985025D01*
X153872246Y-91914453D01*
X153728985Y-91870996D01*
X153617332Y-91859999D01*
X153617321Y-91859999D01*
X153579999Y-91856323D01*
X153542677Y-91859999D01*
X128397323Y-91859999D01*
X128360000Y-91856323D01*
X128322677Y-91859999D01*
X128322668Y-91859999D01*
X128211015Y-91870996D01*
X128067754Y-91914453D01*
X127935725Y-91985025D01*
X127935723Y-91985026D01*
X127935724Y-91985026D01*
X127848997Y-92056200D01*
X127848993Y-92056204D01*
X127820000Y-92079998D01*
X127796206Y-92108991D01*
X125853998Y-94051201D01*
X125825000Y-94074999D01*
X125801202Y-94103997D01*
X125801201Y-94103998D01*
X125730026Y-94190724D01*
X125659454Y-94322754D01*
X125615998Y-94466015D01*
X125601324Y-94615000D01*
X125605001Y-94652332D01*
X125605000Y-95816289D01*
X125561063Y-95860226D01*
X125447795Y-96029744D01*
X125369774Y-96218102D01*
X125330000Y-96418061D01*
X124587000Y-96418061D01*
X124587000Y-91567000D01*
X161714001Y-91567000D01*
X161404335Y-91628596D01*
X161404335Y-91628596D01*
G37*
X161404335Y-91628596D02*
X161079485Y-91763153D01*
X160787129Y-91958500D01*
X160538500Y-92207129D01*
X160343153Y-92499485D01*
X160208596Y-92824335D01*
X160140000Y-93169193D01*
X160140000Y-93520807D01*
X160208596Y-93865665D01*
X160343153Y-94190515D01*
X160538500Y-94482871D01*
X160787129Y-94731500D01*
X161079485Y-94926847D01*
X161404335Y-95061404D01*
X161749193Y-95130000D01*
X162100807Y-95130000D01*
X162445665Y-95061404D01*
X162770515Y-94926847D01*
X163062871Y-94731500D01*
X163207022Y-94587349D01*
X165862256Y-94587349D01*
X165976118Y-94867090D01*
X166291296Y-95022961D01*
X166630826Y-95114349D01*
X166981661Y-95137741D01*
X167330319Y-95092240D01*
X167663400Y-94979594D01*
X167873882Y-94867090D01*
X167987744Y-94587349D01*
X166925000Y-93524605D01*
X165862256Y-94587349D01*
X163207022Y-94587349D01*
X163311500Y-94482871D01*
X163506847Y-94190515D01*
X163641404Y-93865665D01*
X163710000Y-93520807D01*
X163710000Y-93401661D01*
X165132259Y-93401661D01*
X165177760Y-93750319D01*
X165290406Y-94083400D01*
X165402910Y-94293882D01*
X165682651Y-94407744D01*
X166745395Y-93345000D01*
X167104605Y-93345000D01*
X168167349Y-94407744D01*
X168447090Y-94293882D01*
X168602961Y-93978704D01*
X168694349Y-93639174D01*
X168717741Y-93288339D01*
X168672240Y-92939681D01*
X168559594Y-92606600D01*
X168447090Y-92396118D01*
X168167349Y-92282256D01*
X167104605Y-93345000D01*
X166745395Y-93345000D01*
X165682651Y-92282256D01*
X165402910Y-92396118D01*
X165247039Y-92711296D01*
X165155651Y-93050826D01*
X165132259Y-93401661D01*
X163710000Y-93401661D01*
X163710000Y-93169193D01*
X163641404Y-92824335D01*
X163506847Y-92499485D01*
X163311500Y-92207129D01*
X163062871Y-91958500D01*
X162770515Y-91763153D01*
X162445665Y-91628596D01*
X162135999Y-91567000D01*
X166755384Y-91567000D01*
X166519681Y-91597760D01*
X166186600Y-91710406D01*
X165976118Y-91822910D01*
X165862256Y-92102651D01*
X166925000Y-93165395D01*
X167987744Y-92102651D01*
X167873882Y-91822910D01*
X167558704Y-91667039D01*
X167219174Y-91575651D01*
X167089426Y-91567000D01*
X174498000Y-91567000D01*
X174498000Y-109545197D01*
X174196076Y-109243274D01*
X174210975Y-109092000D01*
X174187130Y-108849898D01*
X174116511Y-108617099D01*
X174001833Y-108402551D01*
X173847502Y-108214498D01*
X173698238Y-108092000D01*
X173847502Y-107969502D01*
X174001833Y-107781449D01*
X174116511Y-107566901D01*
X174187130Y-107334102D01*
X174210975Y-107092000D01*
X174187130Y-106849898D01*
X174116511Y-106617099D01*
X174001833Y-106402551D01*
X173847502Y-106214498D01*
X173705022Y-106097568D01*
X173722276Y-106087009D01*
X173901938Y-105921128D01*
X174045786Y-105723384D01*
X174148292Y-105501377D01*
X174163462Y-105409609D01*
X174038731Y-105219000D01*
X172847000Y-105219000D01*
X172847000Y-105239000D01*
X172593000Y-105239000D01*
X172593000Y-105219000D01*
X171401269Y-105219000D01*
X171276538Y-105409609D01*
X171291708Y-105501377D01*
X171394214Y-105723384D01*
X171538062Y-105921128D01*
X171717724Y-106087009D01*
X171734978Y-106097568D01*
X171592498Y-106214498D01*
X171438167Y-106402551D01*
X171323489Y-106617099D01*
X171252870Y-106849898D01*
X171229025Y-107092000D01*
X171252870Y-107334102D01*
X171323489Y-107566901D01*
X171438167Y-107781449D01*
X171592498Y-107969502D01*
X171741762Y-108092000D01*
X171592498Y-108214498D01*
X171438167Y-108402551D01*
X171323489Y-108617099D01*
X171252870Y-108849898D01*
X171229025Y-109092000D01*
X171252870Y-109334102D01*
X171323489Y-109566901D01*
X171438167Y-109781449D01*
X171592498Y-109969502D01*
X171741762Y-110092000D01*
X171592498Y-110214498D01*
X171438167Y-110402551D01*
X171323489Y-110617099D01*
X171252870Y-110849898D01*
X171229025Y-111092000D01*
X171252870Y-111334102D01*
X171323489Y-111566901D01*
X171438167Y-111781449D01*
X171592498Y-111969502D01*
X171780551Y-112123833D01*
X171995099Y-112238511D01*
X172227898Y-112309130D01*
X172409335Y-112327000D01*
X173030665Y-112327000D01*
X173212102Y-112309130D01*
X173320002Y-112276399D01*
X173320001Y-116435197D01*
X173040199Y-116715000D01*
X155254802Y-116715000D01*
X154705000Y-116165199D01*
X154705000Y-116103061D01*
X154665226Y-115903102D01*
X154587205Y-115714744D01*
X154473937Y-115545226D01*
X154329774Y-115401063D01*
X154160256Y-115287795D01*
X153971898Y-115209774D01*
X153771939Y-115170000D01*
X153568061Y-115170000D01*
X153368102Y-115209774D01*
X153179744Y-115287795D01*
X153010226Y-115401063D01*
X152866063Y-115545226D01*
X152752795Y-115714744D01*
X152674774Y-115903102D01*
X152635000Y-116103061D01*
X152635000Y-116306939D01*
X152674774Y-116506898D01*
X152752795Y-116695256D01*
X152866063Y-116864774D01*
X153010226Y-117008937D01*
X153179744Y-117122205D01*
X153368102Y-117200226D01*
X153568061Y-117240000D01*
X153630199Y-117240000D01*
X153738198Y-117348000D01*
X124587000Y-117348000D01*
X124587000Y-99973110D01*
X126574524Y-99973110D01*
X126695845Y-100203000D01*
X127889000Y-100203000D01*
X127889000Y-99009186D01*
X128143000Y-99009186D01*
X128143000Y-100203000D01*
X129336155Y-100203000D01*
X129457476Y-99973110D01*
X129412825Y-99825901D01*
X129287641Y-99563080D01*
X129113588Y-99329731D01*
X128897355Y-99134822D01*
X128647252Y-98985843D01*
X128372891Y-98888519D01*
X128143000Y-99009186D01*
X127889000Y-99009186D01*
X127659109Y-98888519D01*
X127384748Y-98985843D01*
X127134645Y-99134822D01*
X126918412Y-99329731D01*
X126744359Y-99563080D01*
X126619175Y-99825901D01*
X126574524Y-99973110D01*
X124587000Y-99973110D01*
X124587000Y-96418061D01*
X125330000Y-96418061D01*
X125330000Y-96621939D01*
X125369774Y-96821898D01*
X125447795Y-97010256D01*
X125561063Y-97179774D01*
X125705226Y-97323937D01*
X125874744Y-97437205D01*
X126063102Y-97515226D01*
X126263061Y-97555000D01*
X126466939Y-97555000D01*
X126666898Y-97515226D01*
X126855256Y-97437205D01*
X127024774Y-97323937D01*
X127168937Y-97179774D01*
X127282205Y-97010256D01*
X127360226Y-96821898D01*
X127400000Y-96621939D01*
X127400000Y-96418061D01*
X127360226Y-96218102D01*
X127282205Y-96029744D01*
X127168937Y-95860226D01*
X127125000Y-95816289D01*
X127125000Y-95783061D01*
X143110000Y-95783061D01*
X143110000Y-95986939D01*
X143149774Y-96186898D01*
X143227795Y-96375256D01*
X143341063Y-96544774D01*
X143485226Y-96688937D01*
X143654744Y-96802205D01*
X143843102Y-96880226D01*
X144043061Y-96920000D01*
X144246939Y-96920000D01*
X144446898Y-96880226D01*
X144635256Y-96802205D01*
X144804774Y-96688937D01*
X144848711Y-96645000D01*
X145100199Y-96645000D01*
X149460000Y-101004802D01*
X149460000Y-101066939D01*
X149499774Y-101266898D01*
X149577795Y-101455256D01*
X149691063Y-101624774D01*
X149835226Y-101768937D01*
X150004744Y-101882205D01*
X150193102Y-101960226D01*
X150393061Y-102000000D01*
X150596939Y-102000000D01*
X150796898Y-101960226D01*
X150985256Y-101882205D01*
X151154774Y-101768937D01*
X151298937Y-101624774D01*
X151412205Y-101455256D01*
X151490226Y-101266898D01*
X151530000Y-101066939D01*
X151530000Y-100863061D01*
X151490226Y-100663102D01*
X151412205Y-100474744D01*
X151298937Y-100305226D01*
X151154774Y-100161063D01*
X150985256Y-100047795D01*
X150796898Y-99969774D01*
X150596939Y-99930000D01*
X150534802Y-99930000D01*
X145978804Y-95374003D01*
X145955001Y-95344999D01*
X145839276Y-95250026D01*
X145707247Y-95179454D01*
X145563986Y-95135997D01*
X145452333Y-95125000D01*
X145452322Y-95125000D01*
X145415000Y-95121324D01*
X145377678Y-95125000D01*
X144848711Y-95125000D01*
X144804774Y-95081063D01*
X144635256Y-94967795D01*
X144446898Y-94889774D01*
X144246939Y-94850000D01*
X144043061Y-94850000D01*
X143843102Y-94889774D01*
X143654744Y-94967795D01*
X143485226Y-95081063D01*
X143341063Y-95225226D01*
X143227795Y-95394744D01*
X143149774Y-95583102D01*
X143110000Y-95783061D01*
X127125000Y-95783061D01*
X127125000Y-94929801D01*
X128674804Y-93379999D01*
X153265198Y-93379999D01*
X154180000Y-94294802D01*
X154180001Y-98356288D01*
X154136063Y-98400226D01*
X154022795Y-98569744D01*
X153944774Y-98758102D01*
X153905000Y-98958061D01*
X153905000Y-99161939D01*
X153944774Y-99361898D01*
X154022795Y-99550256D01*
X154136063Y-99719774D01*
X154280226Y-99863937D01*
X154449744Y-99977205D01*
X154638102Y-100055226D01*
X154752264Y-100077934D01*
X151030198Y-103800001D01*
X129173828Y-103800001D01*
X129256706Y-103699014D01*
X129394599Y-103441034D01*
X129479513Y-103161111D01*
X129508185Y-102870000D01*
X129479513Y-102578889D01*
X129394599Y-102298966D01*
X129256706Y-102040986D01*
X129071134Y-101814866D01*
X128845014Y-101629294D01*
X128780477Y-101594799D01*
X128897355Y-101525178D01*
X129113588Y-101330269D01*
X129287641Y-101096920D01*
X129412825Y-100834099D01*
X129457476Y-100686890D01*
X129336155Y-100457000D01*
X128143000Y-100457000D01*
X128143000Y-100477000D01*
X127889000Y-100477000D01*
X127889000Y-100457000D01*
X126695845Y-100457000D01*
X126574524Y-100686890D01*
X126619175Y-100834099D01*
X126744359Y-101096920D01*
X126918412Y-101330269D01*
X127134645Y-101525178D01*
X127251523Y-101594799D01*
X127186986Y-101629294D01*
X126960866Y-101814866D01*
X126775294Y-102040986D01*
X126637401Y-102298966D01*
X126552487Y-102578889D01*
X126523815Y-102870000D01*
X126552487Y-103161111D01*
X126637401Y-103441034D01*
X126775294Y-103699014D01*
X126960866Y-103925134D01*
X127186986Y-104110706D01*
X127241791Y-104140000D01*
X127186986Y-104169294D01*
X126960866Y-104354866D01*
X126775294Y-104580986D01*
X126637401Y-104838966D01*
X126552487Y-105118889D01*
X126523815Y-105410000D01*
X126552487Y-105701111D01*
X126637401Y-105981034D01*
X126775294Y-106239014D01*
X126960866Y-106465134D01*
X127186986Y-106650706D01*
X127241791Y-106680000D01*
X127186986Y-106709294D01*
X126960866Y-106894866D01*
X126775294Y-107120986D01*
X126637401Y-107378966D01*
X126552487Y-107658889D01*
X126523815Y-107950000D01*
X126552487Y-108241111D01*
X126637401Y-108521034D01*
X126775294Y-108779014D01*
X126960866Y-109005134D01*
X127186986Y-109190706D01*
X127241791Y-109220000D01*
X127186986Y-109249294D01*
X126960866Y-109434866D01*
X126775294Y-109660986D01*
X126637401Y-109918966D01*
X126552487Y-110198889D01*
X126523815Y-110490000D01*
X126552487Y-110781111D01*
X126637401Y-111061034D01*
X126775294Y-111319014D01*
X126960866Y-111545134D01*
X126990687Y-111569607D01*
X126921820Y-111590498D01*
X126811506Y-111649463D01*
X126714815Y-111728815D01*
X126635463Y-111825506D01*
X126576498Y-111935820D01*
X126540188Y-112055518D01*
X126527928Y-112180000D01*
X126527928Y-113880000D01*
X126540188Y-114004482D01*
X126576498Y-114124180D01*
X126635463Y-114234494D01*
X126714815Y-114331185D01*
X126811506Y-114410537D01*
X126921820Y-114469502D01*
X127041518Y-114505812D01*
X127166000Y-114518072D01*
X127361674Y-114518072D01*
X127381026Y-114554276D01*
X127445718Y-114633102D01*
X127476000Y-114670001D01*
X127504998Y-114693799D01*
X128257201Y-115446002D01*
X128280999Y-115475001D01*
X128309997Y-115498799D01*
X128396723Y-115569974D01*
X128528753Y-115640546D01*
X128672014Y-115684003D01*
X128783667Y-115695000D01*
X128783677Y-115695000D01*
X128821000Y-115698676D01*
X128858323Y-115695000D01*
X137091289Y-115695000D01*
X137135226Y-115738937D01*
X137304744Y-115852205D01*
X137493102Y-115930226D01*
X137693061Y-115970000D01*
X137896939Y-115970000D01*
X138096898Y-115930226D01*
X138285256Y-115852205D01*
X138454774Y-115738937D01*
X138598937Y-115594774D01*
X138712205Y-115425256D01*
X138790226Y-115236898D01*
X138830000Y-115036939D01*
X138830000Y-114833061D01*
X138790226Y-114633102D01*
X138712205Y-114444744D01*
X138598937Y-114275226D01*
X138454774Y-114131063D01*
X138285256Y-114017795D01*
X138096898Y-113939774D01*
X137896939Y-113900000D01*
X137693061Y-113900000D01*
X137493102Y-113939774D01*
X137304744Y-114017795D01*
X137135226Y-114131063D01*
X137091289Y-114175000D01*
X129428338Y-114175000D01*
X129455502Y-114124180D01*
X129491812Y-114004482D01*
X129504072Y-113880000D01*
X129504072Y-112293061D01*
X145650000Y-112293061D01*
X145650000Y-112496939D01*
X145689774Y-112696898D01*
X145767795Y-112885256D01*
X145881063Y-113054774D01*
X146025226Y-113198937D01*
X146194744Y-113312205D01*
X146383102Y-113390226D01*
X146583061Y-113430000D01*
X146786939Y-113430000D01*
X146986898Y-113390226D01*
X147175256Y-113312205D01*
X147344774Y-113198937D01*
X147488937Y-113054774D01*
X147602205Y-112885256D01*
X147680226Y-112696898D01*
X147720000Y-112496939D01*
X147720000Y-112434801D01*
X150340204Y-109814599D01*
X160619529Y-109814599D01*
X160668726Y-109854974D01*
X160800755Y-109925546D01*
X160944016Y-109969003D01*
X161055669Y-109980000D01*
X161055678Y-109980000D01*
X161093001Y-109983676D01*
X161130324Y-109980000D01*
X165666289Y-109980000D01*
X165710226Y-110023937D01*
X165879744Y-110137205D01*
X166068102Y-110215226D01*
X166268061Y-110255000D01*
X166471939Y-110255000D01*
X166671898Y-110215226D01*
X166860256Y-110137205D01*
X167029774Y-110023937D01*
X167173937Y-109879774D01*
X167287205Y-109710256D01*
X167365226Y-109521898D01*
X167405000Y-109321939D01*
X167405000Y-109118061D01*
X167365226Y-108918102D01*
X167287205Y-108729744D01*
X167173937Y-108560226D01*
X167029774Y-108416063D01*
X166860256Y-108302795D01*
X166671898Y-108224774D01*
X166471939Y-108185000D01*
X166268061Y-108185000D01*
X166068102Y-108224774D01*
X165879744Y-108302795D01*
X165710226Y-108416063D01*
X165666289Y-108460000D01*
X161401074Y-108460000D01*
X161351877Y-108419625D01*
X161219848Y-108349053D01*
X161076587Y-108305596D01*
X160964934Y-108294599D01*
X160964923Y-108294599D01*
X160927601Y-108290923D01*
X160890279Y-108294599D01*
X150062723Y-108294599D01*
X150025400Y-108290923D01*
X149988077Y-108294599D01*
X149988068Y-108294599D01*
X149876415Y-108305596D01*
X149733154Y-108349053D01*
X149601125Y-108419625D01*
X149601123Y-108419626D01*
X149601124Y-108419626D01*
X149514397Y-108490800D01*
X149514393Y-108490804D01*
X149485400Y-108514598D01*
X149461606Y-108543591D01*
X146645199Y-111360000D01*
X146583061Y-111360000D01*
X146383102Y-111399774D01*
X146194744Y-111477795D01*
X146025226Y-111591063D01*
X145881063Y-111735226D01*
X145767795Y-111904744D01*
X145689774Y-112093102D01*
X145650000Y-112293061D01*
X129504072Y-112293061D01*
X129504072Y-112180000D01*
X129491812Y-112055518D01*
X129455502Y-111935820D01*
X129396537Y-111825506D01*
X129317185Y-111728815D01*
X129220494Y-111649463D01*
X129110180Y-111590498D01*
X129041313Y-111569607D01*
X129071134Y-111545134D01*
X129256706Y-111319014D01*
X129293595Y-111250000D01*
X138996289Y-111250000D01*
X139040226Y-111293937D01*
X139209744Y-111407205D01*
X139398102Y-111485226D01*
X139598061Y-111525000D01*
X139801939Y-111525000D01*
X140001898Y-111485226D01*
X140190256Y-111407205D01*
X140359774Y-111293937D01*
X140503937Y-111149774D01*
X140617205Y-110980256D01*
X140695226Y-110791898D01*
X140735000Y-110591939D01*
X140735000Y-110388061D01*
X140695226Y-110188102D01*
X140617205Y-109999744D01*
X140503937Y-109830226D01*
X140359774Y-109686063D01*
X140190256Y-109572795D01*
X140001898Y-109494774D01*
X139801939Y-109455000D01*
X139598061Y-109455000D01*
X139398102Y-109494774D01*
X139209744Y-109572795D01*
X139040226Y-109686063D01*
X138996289Y-109730000D01*
X129293595Y-109730000D01*
X129256706Y-109660986D01*
X129071134Y-109434866D01*
X128845014Y-109249294D01*
X128790209Y-109220000D01*
X128845014Y-109190706D01*
X129071134Y-109005134D01*
X129256706Y-108779014D01*
X129394599Y-108521034D01*
X129479513Y-108241111D01*
X129508185Y-107950000D01*
X129499321Y-107860001D01*
X157022677Y-107860001D01*
X157059999Y-107863677D01*
X157097321Y-107860001D01*
X157097332Y-107860001D01*
X157208985Y-107849004D01*
X157352246Y-107805547D01*
X157484275Y-107734975D01*
X157600000Y-107640002D01*
X157623803Y-107610998D01*
X159878150Y-105356653D01*
X159940286Y-105356653D01*
X160140245Y-105316879D01*
X160328603Y-105238858D01*
X160498121Y-105125590D01*
X160642284Y-104981427D01*
X160755552Y-104811909D01*
X160833573Y-104623551D01*
X160873347Y-104423592D01*
X160873347Y-104219714D01*
X160833573Y-104019755D01*
X160755552Y-103831397D01*
X160642284Y-103661879D01*
X160498121Y-103517716D01*
X160328603Y-103404448D01*
X160140245Y-103326427D01*
X159940286Y-103286653D01*
X159736408Y-103286653D01*
X159536449Y-103326427D01*
X159348091Y-103404448D01*
X159178573Y-103517716D01*
X159034410Y-103661879D01*
X158921142Y-103831397D01*
X158843121Y-104019755D01*
X158803347Y-104219714D01*
X158803347Y-104281850D01*
X156745198Y-106340001D01*
X129173828Y-106340001D01*
X129256706Y-106239014D01*
X129394599Y-105981034D01*
X129479513Y-105701111D01*
X129508185Y-105410000D01*
X129499321Y-105320001D01*
X151307677Y-105320001D01*
X151344999Y-105323677D01*
X151382321Y-105320001D01*
X151382332Y-105320001D01*
X151493985Y-105309004D01*
X151637246Y-105265547D01*
X151769275Y-105194975D01*
X151885000Y-105100002D01*
X151908803Y-105070998D01*
X153887801Y-103092000D01*
X171229025Y-103092000D01*
X171252870Y-103334102D01*
X171323489Y-103566901D01*
X171438167Y-103781449D01*
X171592498Y-103969502D01*
X171734978Y-104086432D01*
X171717724Y-104096991D01*
X171538062Y-104262872D01*
X171394214Y-104460616D01*
X171291708Y-104682623D01*
X171276538Y-104774391D01*
X171401269Y-104965000D01*
X172593000Y-104965000D01*
X172593000Y-104945000D01*
X172847000Y-104945000D01*
X172847000Y-104965000D01*
X174038731Y-104965000D01*
X174163462Y-104774391D01*
X174148292Y-104682623D01*
X174045786Y-104460616D01*
X173901938Y-104262872D01*
X173722276Y-104096991D01*
X173705022Y-104086432D01*
X173847502Y-103969502D01*
X174001833Y-103781449D01*
X174116511Y-103566901D01*
X174187130Y-103334102D01*
X174210975Y-103092000D01*
X174187130Y-102849898D01*
X174116511Y-102617099D01*
X174001833Y-102402551D01*
X173875564Y-102248691D01*
X173924494Y-102222537D01*
X174021185Y-102143185D01*
X174100537Y-102046494D01*
X174159502Y-101936180D01*
X174195812Y-101816482D01*
X174208072Y-101692000D01*
X174208072Y-100492000D01*
X174195812Y-100367518D01*
X174159502Y-100247820D01*
X174100537Y-100137506D01*
X174021185Y-100040815D01*
X173924494Y-99961463D01*
X173814180Y-99902498D01*
X173694482Y-99866188D01*
X173570000Y-99853928D01*
X171870000Y-99853928D01*
X171745518Y-99866188D01*
X171625820Y-99902498D01*
X171515506Y-99961463D01*
X171418815Y-100040815D01*
X171339463Y-100137506D01*
X171280498Y-100247820D01*
X171244188Y-100367518D01*
X171231928Y-100492000D01*
X171231928Y-101692000D01*
X171244188Y-101816482D01*
X171280498Y-101936180D01*
X171339463Y-102046494D01*
X171418815Y-102143185D01*
X171515506Y-102222537D01*
X171564436Y-102248691D01*
X171438167Y-102402551D01*
X171323489Y-102617099D01*
X171252870Y-102849898D01*
X171229025Y-103092000D01*
X153887801Y-103092000D01*
X159424803Y-97555000D01*
X159486939Y-97555000D01*
X159686898Y-97515226D01*
X159875256Y-97437205D01*
X160044774Y-97323937D01*
X160188937Y-97179774D01*
X160302205Y-97010256D01*
X160380226Y-96821898D01*
X160420000Y-96621939D01*
X160420000Y-96418061D01*
X160380226Y-96218102D01*
X160302205Y-96029744D01*
X160188937Y-95860226D01*
X160044774Y-95716063D01*
X159875256Y-95602795D01*
X159686898Y-95524774D01*
X159486939Y-95485000D01*
X159283061Y-95485000D01*
X159083102Y-95524774D01*
X158894744Y-95602795D01*
X158725226Y-95716063D01*
X158581063Y-95860226D01*
X158467795Y-96029744D01*
X158389774Y-96218102D01*
X158350000Y-96418061D01*
X158350000Y-96480197D01*
X155957934Y-98872264D01*
X155935226Y-98758102D01*
X155857205Y-98569744D01*
X155743937Y-98400226D01*
X155700000Y-98356289D01*
X155700000Y-94017323D01*
X155703676Y-93980000D01*
X155700000Y-93942677D01*
X155700000Y-93942667D01*
X155689003Y-93831014D01*
X155645546Y-93687753D01*
X155574974Y-93555724D01*
X155480001Y-93439999D01*
X155451004Y-93416202D01*
X154143803Y-92109002D01*
X154120000Y-92079998D01*
X154004275Y-91985025D01*
X153872246Y-91914453D01*
X153728985Y-91870996D01*
X153617332Y-91859999D01*
X153617321Y-91859999D01*
X153579999Y-91856323D01*
X153542677Y-91859999D01*
X128397323Y-91859999D01*
X128360000Y-91856323D01*
X128322677Y-91859999D01*
X128322668Y-91859999D01*
X128211015Y-91870996D01*
X128067754Y-91914453D01*
X127935725Y-91985025D01*
X127935723Y-91985026D01*
X127935724Y-91985026D01*
X127848997Y-92056200D01*
X127848993Y-92056204D01*
X127820000Y-92079998D01*
X127796206Y-92108991D01*
X125853998Y-94051201D01*
X125825000Y-94074999D01*
X125801202Y-94103997D01*
X125801201Y-94103998D01*
X125730026Y-94190724D01*
X125659454Y-94322754D01*
X125615998Y-94466015D01*
X125601324Y-94615000D01*
X125605001Y-94652332D01*
X125605000Y-95816289D01*
X125561063Y-95860226D01*
X125447795Y-96029744D01*
X125369774Y-96218102D01*
X125330000Y-96418061D01*
X124587000Y-96418061D01*
X124587000Y-91567000D01*
X161714001Y-91567000D01*
X161404335Y-91628596D01*
M02*
