G04 #@! TF.GenerationSoftware,KiCad,Pcbnew,(5.1.0)-1*
G04 #@! TF.CreationDate,2019-04-29T13:19:32-04:00*
G04 #@! TF.ProjectId,ifx9201sg-h-bridge-board,69667839-3230-4317-9367-2d682d627269,--*
G04 #@! TF.SameCoordinates,Original*
G04 #@! TF.FileFunction,Soldermask,Bot*
G04 #@! TF.FilePolarity,Negative*
%FSLAX46Y46*%
G04 Gerber Fmt 4.6, Leading zero omitted, Abs format (unit mm)*
G04 Created by KiCad (PCBNEW (5.1.0)-1) date 2019-04-29 13:19:32*
%MOMM*%
%LPD*%
G04 APERTURE LIST*
%ADD10C,0.100000*%
G04 APERTURE END LIST*
D10*
G36*
X128917000Y-113931000D02*
G01*
X127115000Y-113931000D01*
X127115000Y-112129000D01*
X128917000Y-112129000D01*
X128917000Y-113931000D01*
X128917000Y-113931000D01*
G37*
G36*
X173033855Y-110444140D02*
G01*
X173097618Y-110450420D01*
X173188404Y-110477960D01*
X173220336Y-110487646D01*
X173333425Y-110548094D01*
X173432554Y-110629446D01*
X173513906Y-110728575D01*
X173574354Y-110841664D01*
X173574355Y-110841668D01*
X173611580Y-110964382D01*
X173624149Y-111092000D01*
X173611580Y-111219618D01*
X173604554Y-111242778D01*
X173574354Y-111342336D01*
X173513906Y-111455425D01*
X173432554Y-111554554D01*
X173333425Y-111635906D01*
X173220336Y-111696354D01*
X173188404Y-111706040D01*
X173097618Y-111733580D01*
X173033855Y-111739860D01*
X173001974Y-111743000D01*
X172438026Y-111743000D01*
X172406145Y-111739860D01*
X172342382Y-111733580D01*
X172251596Y-111706040D01*
X172219664Y-111696354D01*
X172106575Y-111635906D01*
X172007446Y-111554554D01*
X171926094Y-111455425D01*
X171865646Y-111342336D01*
X171835446Y-111242778D01*
X171828420Y-111219618D01*
X171815851Y-111092000D01*
X171828420Y-110964382D01*
X171865645Y-110841668D01*
X171865646Y-110841664D01*
X171926094Y-110728575D01*
X172007446Y-110629446D01*
X172106575Y-110548094D01*
X172219664Y-110487646D01*
X172251596Y-110477960D01*
X172342382Y-110450420D01*
X172406145Y-110444140D01*
X172438026Y-110441000D01*
X173001974Y-110441000D01*
X173033855Y-110444140D01*
X173033855Y-110444140D01*
G37*
G36*
X128126442Y-109595518D02*
G01*
X128192627Y-109602037D01*
X128362466Y-109653557D01*
X128518991Y-109737222D01*
X128526031Y-109743000D01*
X128656186Y-109849814D01*
X128739448Y-109951271D01*
X128768778Y-109987009D01*
X128852443Y-110143534D01*
X128903963Y-110313373D01*
X128921359Y-110490000D01*
X128903963Y-110666627D01*
X128885171Y-110728575D01*
X128852442Y-110836468D01*
X128810610Y-110914729D01*
X128768778Y-110992991D01*
X128739448Y-111028729D01*
X128656186Y-111130186D01*
X128554729Y-111213448D01*
X128518991Y-111242778D01*
X128362466Y-111326443D01*
X128192627Y-111377963D01*
X128126443Y-111384481D01*
X128060260Y-111391000D01*
X127971740Y-111391000D01*
X127905557Y-111384481D01*
X127839373Y-111377963D01*
X127669534Y-111326443D01*
X127513009Y-111242778D01*
X127477271Y-111213448D01*
X127375814Y-111130186D01*
X127292552Y-111028729D01*
X127263222Y-110992991D01*
X127221390Y-110914729D01*
X127179558Y-110836468D01*
X127146829Y-110728575D01*
X127128037Y-110666627D01*
X127110641Y-110490000D01*
X127128037Y-110313373D01*
X127179557Y-110143534D01*
X127263222Y-109987009D01*
X127292552Y-109951271D01*
X127375814Y-109849814D01*
X127505969Y-109743000D01*
X127513009Y-109737222D01*
X127669534Y-109653557D01*
X127839373Y-109602037D01*
X127905558Y-109595518D01*
X127971740Y-109589000D01*
X128060260Y-109589000D01*
X128126442Y-109595518D01*
X128126442Y-109595518D01*
G37*
G36*
X173033855Y-108444140D02*
G01*
X173097618Y-108450420D01*
X173188404Y-108477960D01*
X173220336Y-108487646D01*
X173333425Y-108548094D01*
X173432554Y-108629446D01*
X173513906Y-108728575D01*
X173574354Y-108841664D01*
X173574355Y-108841668D01*
X173611580Y-108964382D01*
X173624149Y-109092000D01*
X173611580Y-109219618D01*
X173584040Y-109310404D01*
X173574354Y-109342336D01*
X173513906Y-109455425D01*
X173432554Y-109554554D01*
X173333425Y-109635906D01*
X173220336Y-109696354D01*
X173188404Y-109706040D01*
X173097618Y-109733580D01*
X173033855Y-109739860D01*
X173001974Y-109743000D01*
X172438026Y-109743000D01*
X172406145Y-109739860D01*
X172342382Y-109733580D01*
X172251596Y-109706040D01*
X172219664Y-109696354D01*
X172106575Y-109635906D01*
X172007446Y-109554554D01*
X171926094Y-109455425D01*
X171865646Y-109342336D01*
X171855960Y-109310404D01*
X171828420Y-109219618D01*
X171815851Y-109092000D01*
X171828420Y-108964382D01*
X171865645Y-108841668D01*
X171865646Y-108841664D01*
X171926094Y-108728575D01*
X172007446Y-108629446D01*
X172106575Y-108548094D01*
X172219664Y-108487646D01*
X172251596Y-108477960D01*
X172342382Y-108450420D01*
X172406145Y-108444140D01*
X172438026Y-108441000D01*
X173001974Y-108441000D01*
X173033855Y-108444140D01*
X173033855Y-108444140D01*
G37*
G36*
X128126442Y-107055518D02*
G01*
X128192627Y-107062037D01*
X128362466Y-107113557D01*
X128518991Y-107197222D01*
X128546278Y-107219616D01*
X128656186Y-107309814D01*
X128739448Y-107411271D01*
X128768778Y-107447009D01*
X128852443Y-107603534D01*
X128903963Y-107773373D01*
X128921359Y-107950000D01*
X128903963Y-108126627D01*
X128852443Y-108296466D01*
X128768778Y-108452991D01*
X128740338Y-108487645D01*
X128656186Y-108590186D01*
X128554729Y-108673448D01*
X128518991Y-108702778D01*
X128362466Y-108786443D01*
X128192627Y-108837963D01*
X128126442Y-108844482D01*
X128060260Y-108851000D01*
X127971740Y-108851000D01*
X127905558Y-108844482D01*
X127839373Y-108837963D01*
X127669534Y-108786443D01*
X127513009Y-108702778D01*
X127477271Y-108673448D01*
X127375814Y-108590186D01*
X127291662Y-108487645D01*
X127263222Y-108452991D01*
X127179557Y-108296466D01*
X127128037Y-108126627D01*
X127110641Y-107950000D01*
X127128037Y-107773373D01*
X127179557Y-107603534D01*
X127263222Y-107447009D01*
X127292552Y-107411271D01*
X127375814Y-107309814D01*
X127485722Y-107219616D01*
X127513009Y-107197222D01*
X127669534Y-107113557D01*
X127839373Y-107062037D01*
X127905558Y-107055518D01*
X127971740Y-107049000D01*
X128060260Y-107049000D01*
X128126442Y-107055518D01*
X128126442Y-107055518D01*
G37*
G36*
X173033855Y-106444140D02*
G01*
X173097618Y-106450420D01*
X173188404Y-106477960D01*
X173220336Y-106487646D01*
X173333425Y-106548094D01*
X173432554Y-106629446D01*
X173513906Y-106728575D01*
X173574354Y-106841664D01*
X173574355Y-106841668D01*
X173611580Y-106964382D01*
X173624149Y-107092000D01*
X173611580Y-107219618D01*
X173584219Y-107309814D01*
X173574354Y-107342336D01*
X173513906Y-107455425D01*
X173432554Y-107554554D01*
X173333425Y-107635906D01*
X173220336Y-107696354D01*
X173188404Y-107706040D01*
X173097618Y-107733580D01*
X173033855Y-107739860D01*
X173001974Y-107743000D01*
X172438026Y-107743000D01*
X172406145Y-107739860D01*
X172342382Y-107733580D01*
X172251596Y-107706040D01*
X172219664Y-107696354D01*
X172106575Y-107635906D01*
X172007446Y-107554554D01*
X171926094Y-107455425D01*
X171865646Y-107342336D01*
X171855781Y-107309814D01*
X171828420Y-107219618D01*
X171815851Y-107092000D01*
X171828420Y-106964382D01*
X171865645Y-106841668D01*
X171865646Y-106841664D01*
X171926094Y-106728575D01*
X172007446Y-106629446D01*
X172106575Y-106548094D01*
X172219664Y-106487646D01*
X172251596Y-106477960D01*
X172342382Y-106450420D01*
X172406145Y-106444140D01*
X172438026Y-106441000D01*
X173001974Y-106441000D01*
X173033855Y-106444140D01*
X173033855Y-106444140D01*
G37*
G36*
X128126443Y-104515519D02*
G01*
X128192627Y-104522037D01*
X128362466Y-104573557D01*
X128518991Y-104657222D01*
X128554729Y-104686552D01*
X128656186Y-104769814D01*
X128715154Y-104841668D01*
X128768778Y-104907009D01*
X128852443Y-105063534D01*
X128903963Y-105233373D01*
X128921359Y-105410000D01*
X128903963Y-105586627D01*
X128852443Y-105756466D01*
X128768778Y-105912991D01*
X128739448Y-105948729D01*
X128656186Y-106050186D01*
X128554729Y-106133448D01*
X128518991Y-106162778D01*
X128362466Y-106246443D01*
X128192627Y-106297963D01*
X128126442Y-106304482D01*
X128060260Y-106311000D01*
X127971740Y-106311000D01*
X127905558Y-106304482D01*
X127839373Y-106297963D01*
X127669534Y-106246443D01*
X127513009Y-106162778D01*
X127477271Y-106133448D01*
X127375814Y-106050186D01*
X127292552Y-105948729D01*
X127263222Y-105912991D01*
X127179557Y-105756466D01*
X127128037Y-105586627D01*
X127110641Y-105410000D01*
X127128037Y-105233373D01*
X127179557Y-105063534D01*
X127263222Y-104907009D01*
X127316846Y-104841668D01*
X127375814Y-104769814D01*
X127477271Y-104686552D01*
X127513009Y-104657222D01*
X127669534Y-104573557D01*
X127839373Y-104522037D01*
X127905557Y-104515519D01*
X127971740Y-104509000D01*
X128060260Y-104509000D01*
X128126443Y-104515519D01*
X128126443Y-104515519D01*
G37*
G36*
X173033855Y-104444140D02*
G01*
X173097618Y-104450420D01*
X173188404Y-104477960D01*
X173220336Y-104487646D01*
X173333425Y-104548094D01*
X173432554Y-104629446D01*
X173513906Y-104728575D01*
X173574354Y-104841664D01*
X173574355Y-104841668D01*
X173611580Y-104964382D01*
X173624149Y-105092000D01*
X173611580Y-105219618D01*
X173584040Y-105310404D01*
X173574354Y-105342336D01*
X173513906Y-105455425D01*
X173432554Y-105554554D01*
X173333425Y-105635906D01*
X173220336Y-105696354D01*
X173188404Y-105706040D01*
X173097618Y-105733580D01*
X173033855Y-105739860D01*
X173001974Y-105743000D01*
X172438026Y-105743000D01*
X172406145Y-105739860D01*
X172342382Y-105733580D01*
X172251596Y-105706040D01*
X172219664Y-105696354D01*
X172106575Y-105635906D01*
X172007446Y-105554554D01*
X171926094Y-105455425D01*
X171865646Y-105342336D01*
X171855960Y-105310404D01*
X171828420Y-105219618D01*
X171815851Y-105092000D01*
X171828420Y-104964382D01*
X171865645Y-104841668D01*
X171865646Y-104841664D01*
X171926094Y-104728575D01*
X172007446Y-104629446D01*
X172106575Y-104548094D01*
X172219664Y-104487646D01*
X172251596Y-104477960D01*
X172342382Y-104450420D01*
X172406145Y-104444140D01*
X172438026Y-104441000D01*
X173001974Y-104441000D01*
X173033855Y-104444140D01*
X173033855Y-104444140D01*
G37*
G36*
X128126442Y-101975518D02*
G01*
X128192627Y-101982037D01*
X128362466Y-102033557D01*
X128518991Y-102117222D01*
X128554729Y-102146552D01*
X128656186Y-102229814D01*
X128739448Y-102331271D01*
X128768778Y-102367009D01*
X128852443Y-102523534D01*
X128903963Y-102693373D01*
X128921359Y-102870000D01*
X128903963Y-103046627D01*
X128852443Y-103216466D01*
X128768778Y-103372991D01*
X128739448Y-103408729D01*
X128656186Y-103510186D01*
X128554729Y-103593448D01*
X128518991Y-103622778D01*
X128362466Y-103706443D01*
X128192627Y-103757963D01*
X128126443Y-103764481D01*
X128060260Y-103771000D01*
X127971740Y-103771000D01*
X127905557Y-103764481D01*
X127839373Y-103757963D01*
X127669534Y-103706443D01*
X127513009Y-103622778D01*
X127477271Y-103593448D01*
X127375814Y-103510186D01*
X127292552Y-103408729D01*
X127263222Y-103372991D01*
X127179557Y-103216466D01*
X127128037Y-103046627D01*
X127110641Y-102870000D01*
X127128037Y-102693373D01*
X127179557Y-102523534D01*
X127263222Y-102367009D01*
X127292552Y-102331271D01*
X127375814Y-102229814D01*
X127477271Y-102146552D01*
X127513009Y-102117222D01*
X127669534Y-102033557D01*
X127839373Y-101982037D01*
X127905558Y-101975518D01*
X127971740Y-101969000D01*
X128060260Y-101969000D01*
X128126442Y-101975518D01*
X128126442Y-101975518D01*
G37*
G36*
X173033855Y-102444140D02*
G01*
X173097618Y-102450420D01*
X173188404Y-102477960D01*
X173220336Y-102487646D01*
X173333425Y-102548094D01*
X173432554Y-102629446D01*
X173513906Y-102728575D01*
X173574354Y-102841664D01*
X173574355Y-102841668D01*
X173611580Y-102964382D01*
X173624149Y-103092000D01*
X173611580Y-103219618D01*
X173584040Y-103310404D01*
X173574354Y-103342336D01*
X173513906Y-103455425D01*
X173432554Y-103554554D01*
X173333425Y-103635906D01*
X173220336Y-103696354D01*
X173188404Y-103706040D01*
X173097618Y-103733580D01*
X173033855Y-103739860D01*
X173001974Y-103743000D01*
X172438026Y-103743000D01*
X172406145Y-103739860D01*
X172342382Y-103733580D01*
X172251596Y-103706040D01*
X172219664Y-103696354D01*
X172106575Y-103635906D01*
X172007446Y-103554554D01*
X171926094Y-103455425D01*
X171865646Y-103342336D01*
X171855960Y-103310404D01*
X171828420Y-103219618D01*
X171815851Y-103092000D01*
X171828420Y-102964382D01*
X171865645Y-102841668D01*
X171865646Y-102841664D01*
X171926094Y-102728575D01*
X172007446Y-102629446D01*
X172106575Y-102548094D01*
X172219664Y-102487646D01*
X172251596Y-102477960D01*
X172342382Y-102450420D01*
X172406145Y-102444140D01*
X172438026Y-102441000D01*
X173001974Y-102441000D01*
X173033855Y-102444140D01*
X173033855Y-102444140D01*
G37*
G36*
X173621000Y-101743000D02*
G01*
X171819000Y-101743000D01*
X171819000Y-100441000D01*
X173621000Y-100441000D01*
X173621000Y-101743000D01*
X173621000Y-101743000D01*
G37*
G36*
X128126443Y-99435519D02*
G01*
X128192627Y-99442037D01*
X128362466Y-99493557D01*
X128518991Y-99577222D01*
X128554729Y-99606552D01*
X128656186Y-99689814D01*
X128739448Y-99791271D01*
X128768778Y-99827009D01*
X128852443Y-99983534D01*
X128903963Y-100153373D01*
X128921359Y-100330000D01*
X128903963Y-100506627D01*
X128852443Y-100676466D01*
X128768778Y-100832991D01*
X128739448Y-100868729D01*
X128656186Y-100970186D01*
X128554729Y-101053448D01*
X128518991Y-101082778D01*
X128362466Y-101166443D01*
X128192627Y-101217963D01*
X128126443Y-101224481D01*
X128060260Y-101231000D01*
X127971740Y-101231000D01*
X127905558Y-101224482D01*
X127839373Y-101217963D01*
X127669534Y-101166443D01*
X127513009Y-101082778D01*
X127477271Y-101053448D01*
X127375814Y-100970186D01*
X127292552Y-100868729D01*
X127263222Y-100832991D01*
X127179557Y-100676466D01*
X127128037Y-100506627D01*
X127110641Y-100330000D01*
X127128037Y-100153373D01*
X127179557Y-99983534D01*
X127263222Y-99827009D01*
X127292552Y-99791271D01*
X127375814Y-99689814D01*
X127477271Y-99606552D01*
X127513009Y-99577222D01*
X127669534Y-99493557D01*
X127839373Y-99442037D01*
X127905558Y-99435518D01*
X127971740Y-99429000D01*
X128060260Y-99429000D01*
X128126443Y-99435519D01*
X128126443Y-99435519D01*
G37*
G36*
X167275318Y-92190153D02*
G01*
X167493885Y-92280687D01*
X167493887Y-92280688D01*
X167690593Y-92412122D01*
X167857878Y-92579407D01*
X167989312Y-92776113D01*
X167989313Y-92776115D01*
X168079847Y-92994682D01*
X168126000Y-93226710D01*
X168126000Y-93463290D01*
X168079847Y-93695318D01*
X167989313Y-93913885D01*
X167989312Y-93913887D01*
X167857878Y-94110593D01*
X167690593Y-94277878D01*
X167493887Y-94409312D01*
X167493886Y-94409313D01*
X167493885Y-94409313D01*
X167275318Y-94499847D01*
X167043290Y-94546000D01*
X166806710Y-94546000D01*
X166574682Y-94499847D01*
X166356115Y-94409313D01*
X166356114Y-94409313D01*
X166356113Y-94409312D01*
X166159407Y-94277878D01*
X165992122Y-94110593D01*
X165860688Y-93913887D01*
X165860687Y-93913885D01*
X165770153Y-93695318D01*
X165724000Y-93463290D01*
X165724000Y-93226710D01*
X165770153Y-92994682D01*
X165860687Y-92776115D01*
X165860688Y-92776113D01*
X165992122Y-92579407D01*
X166159407Y-92412122D01*
X166356113Y-92280688D01*
X166356115Y-92280687D01*
X166574682Y-92190153D01*
X166806710Y-92144000D01*
X167043290Y-92144000D01*
X167275318Y-92190153D01*
X167275318Y-92190153D01*
G37*
G36*
X162275318Y-92190153D02*
G01*
X162493885Y-92280687D01*
X162493887Y-92280688D01*
X162690593Y-92412122D01*
X162857878Y-92579407D01*
X162989312Y-92776113D01*
X162989313Y-92776115D01*
X163079847Y-92994682D01*
X163126000Y-93226710D01*
X163126000Y-93463290D01*
X163079847Y-93695318D01*
X162989313Y-93913885D01*
X162989312Y-93913887D01*
X162857878Y-94110593D01*
X162690593Y-94277878D01*
X162493887Y-94409312D01*
X162493886Y-94409313D01*
X162493885Y-94409313D01*
X162275318Y-94499847D01*
X162043290Y-94546000D01*
X161806710Y-94546000D01*
X161574682Y-94499847D01*
X161356115Y-94409313D01*
X161356114Y-94409313D01*
X161356113Y-94409312D01*
X161159407Y-94277878D01*
X160992122Y-94110593D01*
X160860688Y-93913887D01*
X160860687Y-93913885D01*
X160770153Y-93695318D01*
X160724000Y-93463290D01*
X160724000Y-93226710D01*
X160770153Y-92994682D01*
X160860687Y-92776115D01*
X160860688Y-92776113D01*
X160992122Y-92579407D01*
X161159407Y-92412122D01*
X161356113Y-92280688D01*
X161356115Y-92280687D01*
X161574682Y-92190153D01*
X161806710Y-92144000D01*
X162043290Y-92144000D01*
X162275318Y-92190153D01*
X162275318Y-92190153D01*
G37*
M02*
