M48
; DRILL file {KiCad (5.1.0)-1} date 2019-04-29 13:12:08
; FORMAT={-:-/ absolute / metric / decimal}
; #@! TF.CreationDate,2019-04-29T13:12:08-04:00
; #@! TF.GenerationSoftware,Kicad,Pcbnew,(5.1.0)-1
; #@! TF.FileFunction,Plated,1,2,PTH
FMAT,2
METRIC
T1C0.400
T2C0.750
T3C1.000
T4C1.300
%
G90
G05
T1
X126.365Y-96.52
X130.81Y-94.615
X133.35Y-95.25
X133.35Y-97.155
X133.35Y-108.585
X133.35Y-113.665
X137.795Y-114.935
X139.065Y-99.06
X139.7Y-110.49
X144.145Y-95.885
X144.78Y-107.95
X146.05Y-106.045
X146.05Y-115.57
X146.685Y-112.395
X149.86Y-116.205
X150.495Y-100.965
X153.67Y-113.03
X153.67Y-116.205
X154.94Y-99.06
X155.575Y-115.57
X157.48Y-97.155
X158.75Y-104.14
X158.948Y-111.125
X158.948Y-112.395
X158.948Y-113.665
X158.948Y-114.935
X159.385Y-96.52
X159.838Y-104.322
X160.02Y-109.855
X160.045Y-116.23
X163.195Y-109.945
X163.195Y-116.205
X164.465Y-102.87
X164.465Y-111.125
X164.465Y-112.395
X164.465Y-113.665
X164.465Y-114.935
X166.37Y-109.22
X168.201Y-113.649
X169.545Y-97.245
X173.355Y-115.57
T2
X172.72Y-101.092
X172.72Y-103.092
X172.72Y-105.092
X172.72Y-107.092
X172.72Y-109.092
X172.72Y-111.092
T3
X128.016Y-100.33
X128.016Y-102.87
X128.016Y-105.41
X128.016Y-107.95
X128.016Y-110.49
X128.016Y-113.03
T4
X161.925Y-93.345
X166.925Y-93.345
T0
M30
