G04 #@! TF.GenerationSoftware,KiCad,Pcbnew,(5.1.0)-1*
G04 #@! TF.CreationDate,2019-04-29T13:19:31-04:00*
G04 #@! TF.ProjectId,ifx9201sg-h-bridge-board,69667839-3230-4317-9367-2d682d627269,--*
G04 #@! TF.SameCoordinates,Original*
G04 #@! TF.FileFunction,Paste,Top*
G04 #@! TF.FilePolarity,Positive*
%FSLAX46Y46*%
G04 Gerber Fmt 4.6, Leading zero omitted, Abs format (unit mm)*
G04 Created by KiCad (PCBNEW (5.1.0)-1) date 2019-04-29 13:19:31*
%MOMM*%
%LPD*%
G04 APERTURE LIST*
%ADD10R,1.000000X1.200000*%
%ADD11R,2.000000X3.200000*%
%ADD12R,1.200000X1.000000*%
%ADD13R,1.040000X1.040000*%
%ADD14R,0.720000X0.640000*%
%ADD15R,1.200000X1.040000*%
%ADD16R,1.759712X1.119632*%
%ADD17R,5.600000X5.600000*%
%ADD18R,1.600000X2.800000*%
%ADD19R,1.200000X0.320000*%
G04 APERTURE END LIST*
D10*
X157226000Y-99100000D03*
X157226000Y-101600000D03*
D11*
X141478000Y-99824000D03*
X141478000Y-93724000D03*
D10*
X135255000Y-98044000D03*
X135255000Y-100544000D03*
X157226000Y-106934000D03*
X157226000Y-104434000D03*
D12*
X171410000Y-116332000D03*
X168910000Y-116332000D03*
X152888000Y-114808000D03*
X150388000Y-114808000D03*
D13*
X135630000Y-105664000D03*
X138430000Y-105664000D03*
D14*
X134763000Y-109286000D03*
X134763000Y-111186000D03*
X136763000Y-110236000D03*
D13*
X135255000Y-95250000D03*
X135255000Y-92450000D03*
D14*
X136763000Y-115570000D03*
X134763000Y-116520000D03*
X134763000Y-114620000D03*
D15*
X152908000Y-107696000D03*
X150208000Y-107696000D03*
D16*
X128524000Y-92964000D03*
X128524000Y-97363280D03*
D17*
X150368000Y-95250000D03*
D18*
X152648000Y-102650000D03*
X148068000Y-102650000D03*
D15*
X141699000Y-109474000D03*
X144399000Y-109474000D03*
X144399000Y-116332000D03*
X141699000Y-116332000D03*
X159860000Y-105918000D03*
X162560000Y-105918000D03*
X162560000Y-98298000D03*
X159860000Y-98298000D03*
X141445000Y-105664000D03*
X144145000Y-105664000D03*
X144479000Y-114046000D03*
X141779000Y-114046000D03*
X144305000Y-111760000D03*
X141605000Y-111760000D03*
X165100000Y-98044000D03*
X167800000Y-98044000D03*
X167800000Y-101346000D03*
X165100000Y-101346000D03*
X152908000Y-111252000D03*
X150208000Y-111252000D03*
D19*
X159960000Y-102758000D03*
X159960000Y-102108000D03*
X159960000Y-101458000D03*
X162620000Y-101458000D03*
X162620000Y-102108000D03*
X162620000Y-102758000D03*
M02*
