G04 #@! TF.GenerationSoftware,KiCad,Pcbnew,(5.1.0)-1*
G04 #@! TF.CreationDate,2019-04-29T13:19:31-04:00*
G04 #@! TF.ProjectId,ifx9201sg-h-bridge-board,69667839-3230-4317-9367-2d682d627269,--*
G04 #@! TF.SameCoordinates,Original*
G04 #@! TF.FileFunction,Legend,Top*
G04 #@! TF.FilePolarity,Positive*
%FSLAX46Y46*%
G04 Gerber Fmt 4.6, Leading zero omitted, Abs format (unit mm)*
G04 Created by KiCad (PCBNEW (5.1.0)-1) date 2019-04-29 13:19:31*
%MOMM*%
%LPD*%
G04 APERTURE LIST*
%ADD10C,0.300000*%
%ADD11C,0.095250*%
%ADD12C,0.120000*%
%ADD13C,0.150000*%
%ADD14C,0.100000*%
G04 APERTURE END LIST*
D10*
X130417142Y-98468571D02*
X130417142Y-96968571D01*
X131274285Y-98468571D02*
X130631428Y-97611428D01*
X131274285Y-96968571D02*
X130417142Y-97825714D01*
D11*
X162414857Y-97257809D02*
X162414857Y-96919142D01*
X162414857Y-96967523D02*
X162439047Y-96943333D01*
X162487428Y-96919142D01*
X162560000Y-96919142D01*
X162608380Y-96943333D01*
X162632571Y-96991714D01*
X162632571Y-97257809D01*
X162632571Y-96991714D02*
X162656761Y-96943333D01*
X162705142Y-96919142D01*
X162777714Y-96919142D01*
X162826095Y-96943333D01*
X162850285Y-96991714D01*
X162850285Y-97257809D01*
X163309904Y-97257809D02*
X163309904Y-96991714D01*
X163285714Y-96943333D01*
X163237333Y-96919142D01*
X163140571Y-96919142D01*
X163092190Y-96943333D01*
X163309904Y-97233619D02*
X163261523Y-97257809D01*
X163140571Y-97257809D01*
X163092190Y-97233619D01*
X163068000Y-97185238D01*
X163068000Y-97136857D01*
X163092190Y-97088476D01*
X163140571Y-97064285D01*
X163261523Y-97064285D01*
X163309904Y-97040095D01*
X163503428Y-97257809D02*
X163769523Y-96919142D01*
X163503428Y-96919142D02*
X163769523Y-97257809D01*
D10*
X157782380Y-96610714D02*
X158750000Y-96610714D01*
X158266190Y-97094523D02*
X158266190Y-96126904D01*
X159899047Y-96247857D02*
X159899047Y-97094523D01*
X159596666Y-95764047D02*
X159294285Y-96671190D01*
X160080476Y-96671190D01*
X160806190Y-95824523D02*
X160927142Y-95824523D01*
X161048095Y-95885000D01*
X161108571Y-95945476D01*
X161169047Y-96066428D01*
X161229523Y-96308333D01*
X161229523Y-96610714D01*
X161169047Y-96852619D01*
X161108571Y-96973571D01*
X161048095Y-97034047D01*
X160927142Y-97094523D01*
X160806190Y-97094523D01*
X160685238Y-97034047D01*
X160624761Y-96973571D01*
X160564285Y-96852619D01*
X160503809Y-96610714D01*
X160503809Y-96308333D01*
X160564285Y-96066428D01*
X160624761Y-95945476D01*
X160685238Y-95885000D01*
X160806190Y-95824523D01*
X161592380Y-95824523D02*
X162015714Y-97094523D01*
X162439047Y-95824523D01*
X166037380Y-95885000D02*
X165916428Y-95824523D01*
X165735000Y-95824523D01*
X165553571Y-95885000D01*
X165432619Y-96005952D01*
X165372142Y-96126904D01*
X165311666Y-96368809D01*
X165311666Y-96550238D01*
X165372142Y-96792142D01*
X165432619Y-96913095D01*
X165553571Y-97034047D01*
X165735000Y-97094523D01*
X165855952Y-97094523D01*
X166037380Y-97034047D01*
X166097857Y-96973571D01*
X166097857Y-96550238D01*
X165855952Y-96550238D01*
X166642142Y-97094523D02*
X166642142Y-95824523D01*
X167367857Y-97094523D01*
X167367857Y-95824523D01*
X167972619Y-97094523D02*
X167972619Y-95824523D01*
X168275000Y-95824523D01*
X168456428Y-95885000D01*
X168577380Y-96005952D01*
X168637857Y-96126904D01*
X168698333Y-96368809D01*
X168698333Y-96550238D01*
X168637857Y-96792142D01*
X168577380Y-96913095D01*
X168456428Y-97034047D01*
X168275000Y-97094523D01*
X167972619Y-97094523D01*
X130175000Y-113604523D02*
X130175000Y-112334523D01*
X130477380Y-112334523D01*
X130658809Y-112395000D01*
X130779761Y-112515952D01*
X130840238Y-112636904D01*
X130900714Y-112878809D01*
X130900714Y-113060238D01*
X130840238Y-113302142D01*
X130779761Y-113423095D01*
X130658809Y-113544047D01*
X130477380Y-113604523D01*
X130175000Y-113604523D01*
X131445000Y-113604523D02*
X131445000Y-112334523D01*
X132775476Y-113604523D02*
X132352142Y-112999761D01*
X132049761Y-113604523D02*
X132049761Y-112334523D01*
X132533571Y-112334523D01*
X132654523Y-112395000D01*
X132715000Y-112455476D01*
X132775476Y-112576428D01*
X132775476Y-112757857D01*
X132715000Y-112878809D01*
X132654523Y-112939285D01*
X132533571Y-112999761D01*
X132049761Y-112999761D01*
X129872619Y-110399285D02*
X130295952Y-110399285D01*
X130477380Y-111064523D02*
X129872619Y-111064523D01*
X129872619Y-109794523D01*
X130477380Y-109794523D01*
X131021666Y-111064523D02*
X131021666Y-109794523D01*
X131747380Y-111064523D01*
X131747380Y-109794523D01*
X129902857Y-108464047D02*
X130084285Y-108524523D01*
X130386666Y-108524523D01*
X130507619Y-108464047D01*
X130568095Y-108403571D01*
X130628571Y-108282619D01*
X130628571Y-108161666D01*
X130568095Y-108040714D01*
X130507619Y-107980238D01*
X130386666Y-107919761D01*
X130144761Y-107859285D01*
X130023809Y-107798809D01*
X129963333Y-107738333D01*
X129902857Y-107617380D01*
X129902857Y-107496428D01*
X129963333Y-107375476D01*
X130023809Y-107315000D01*
X130144761Y-107254523D01*
X130447142Y-107254523D01*
X130628571Y-107315000D01*
X131112380Y-108161666D02*
X131717142Y-108161666D01*
X130991428Y-108524523D02*
X131414761Y-107254523D01*
X131838095Y-108524523D01*
X129812142Y-105924047D02*
X129993571Y-105984523D01*
X130295952Y-105984523D01*
X130416904Y-105924047D01*
X130477380Y-105863571D01*
X130537857Y-105742619D01*
X130537857Y-105621666D01*
X130477380Y-105500714D01*
X130416904Y-105440238D01*
X130295952Y-105379761D01*
X130054047Y-105319285D01*
X129933095Y-105258809D01*
X129872619Y-105198333D01*
X129812142Y-105077380D01*
X129812142Y-104956428D01*
X129872619Y-104835476D01*
X129933095Y-104775000D01*
X130054047Y-104714523D01*
X130356428Y-104714523D01*
X130537857Y-104775000D01*
X131505476Y-105319285D02*
X131686904Y-105379761D01*
X131747380Y-105440238D01*
X131807857Y-105561190D01*
X131807857Y-105742619D01*
X131747380Y-105863571D01*
X131686904Y-105924047D01*
X131565952Y-105984523D01*
X131082142Y-105984523D01*
X131082142Y-104714523D01*
X131505476Y-104714523D01*
X131626428Y-104775000D01*
X131686904Y-104835476D01*
X131747380Y-104956428D01*
X131747380Y-105077380D01*
X131686904Y-105198333D01*
X131626428Y-105258809D01*
X131505476Y-105319285D01*
X131082142Y-105319285D01*
X129751666Y-102174523D02*
X130175000Y-103444523D01*
X130598333Y-102174523D01*
X131021666Y-103444523D02*
X131021666Y-102174523D01*
X131505476Y-102174523D01*
X131626428Y-102235000D01*
X131686904Y-102295476D01*
X131747380Y-102416428D01*
X131747380Y-102597857D01*
X131686904Y-102718809D01*
X131626428Y-102779285D01*
X131505476Y-102839761D01*
X131021666Y-102839761D01*
X132291666Y-103444523D02*
X132291666Y-102174523D01*
X132775476Y-102174523D01*
X132896428Y-102235000D01*
X132956904Y-102295476D01*
X133017380Y-102416428D01*
X133017380Y-102597857D01*
X132956904Y-102718809D01*
X132896428Y-102779285D01*
X132775476Y-102839761D01*
X132291666Y-102839761D01*
X130477380Y-99695000D02*
X130356428Y-99634523D01*
X130175000Y-99634523D01*
X129993571Y-99695000D01*
X129872619Y-99815952D01*
X129812142Y-99936904D01*
X129751666Y-100178809D01*
X129751666Y-100360238D01*
X129812142Y-100602142D01*
X129872619Y-100723095D01*
X129993571Y-100844047D01*
X130175000Y-100904523D01*
X130295952Y-100904523D01*
X130477380Y-100844047D01*
X130537857Y-100783571D01*
X130537857Y-100360238D01*
X130295952Y-100360238D01*
X131082142Y-100904523D02*
X131082142Y-99634523D01*
X131807857Y-100904523D01*
X131807857Y-99634523D01*
X132412619Y-100904523D02*
X132412619Y-99634523D01*
X132715000Y-99634523D01*
X132896428Y-99695000D01*
X133017380Y-99815952D01*
X133077857Y-99936904D01*
X133138333Y-100178809D01*
X133138333Y-100360238D01*
X133077857Y-100602142D01*
X133017380Y-100723095D01*
X132896428Y-100844047D01*
X132715000Y-100904523D01*
X132412619Y-100904523D01*
D12*
X129286000Y-114300000D02*
X128016000Y-114300000D01*
X129286000Y-113030000D02*
X129286000Y-114300000D01*
X126973071Y-99950000D02*
X126576000Y-99950000D01*
X126973071Y-100710000D02*
X126576000Y-100710000D01*
X117916000Y-99950000D02*
X123916000Y-99950000D01*
X117916000Y-100710000D02*
X117916000Y-99950000D01*
X123916000Y-100710000D02*
X117916000Y-100710000D01*
X126576000Y-101600000D02*
X123916000Y-101600000D01*
X126973071Y-102490000D02*
X126576000Y-102490000D01*
X126973071Y-103250000D02*
X126576000Y-103250000D01*
X117916000Y-102490000D02*
X123916000Y-102490000D01*
X117916000Y-103250000D02*
X117916000Y-102490000D01*
X123916000Y-103250000D02*
X117916000Y-103250000D01*
X126576000Y-104140000D02*
X123916000Y-104140000D01*
X126973071Y-105030000D02*
X126576000Y-105030000D01*
X126973071Y-105790000D02*
X126576000Y-105790000D01*
X117916000Y-105030000D02*
X123916000Y-105030000D01*
X117916000Y-105790000D02*
X117916000Y-105030000D01*
X123916000Y-105790000D02*
X117916000Y-105790000D01*
X126576000Y-106680000D02*
X123916000Y-106680000D01*
X126973071Y-107570000D02*
X126576000Y-107570000D01*
X126973071Y-108330000D02*
X126576000Y-108330000D01*
X117916000Y-107570000D02*
X123916000Y-107570000D01*
X117916000Y-108330000D02*
X117916000Y-107570000D01*
X123916000Y-108330000D02*
X117916000Y-108330000D01*
X126576000Y-109220000D02*
X123916000Y-109220000D01*
X126973071Y-110110000D02*
X126576000Y-110110000D01*
X126973071Y-110870000D02*
X126576000Y-110870000D01*
X117916000Y-110110000D02*
X123916000Y-110110000D01*
X117916000Y-110870000D02*
X117916000Y-110110000D01*
X123916000Y-110870000D02*
X117916000Y-110870000D01*
X126576000Y-111760000D02*
X123916000Y-111760000D01*
X126906000Y-112650000D02*
X126576000Y-112650000D01*
X126906000Y-113410000D02*
X126576000Y-113410000D01*
X123916000Y-112750000D02*
X117916000Y-112750000D01*
X123916000Y-112870000D02*
X117916000Y-112870000D01*
X123916000Y-112990000D02*
X117916000Y-112990000D01*
X123916000Y-113110000D02*
X117916000Y-113110000D01*
X123916000Y-113230000D02*
X117916000Y-113230000D01*
X123916000Y-113350000D02*
X117916000Y-113350000D01*
X117916000Y-112650000D02*
X123916000Y-112650000D01*
X117916000Y-113410000D02*
X117916000Y-112650000D01*
X123916000Y-113410000D02*
X117916000Y-113410000D01*
X123916000Y-114360000D02*
X126576000Y-114360000D01*
X123916000Y-99000000D02*
X123916000Y-114360000D01*
X126576000Y-99000000D02*
X123916000Y-99000000D01*
X126576000Y-114360000D02*
X126576000Y-99000000D01*
X158076000Y-100850000D02*
X158076000Y-99850000D01*
X156376000Y-99850000D02*
X156376000Y-100850000D01*
X145668000Y-93344000D02*
X145668000Y-100964000D01*
X144908000Y-92584000D02*
X145668000Y-93344000D01*
X137288000Y-93344000D02*
X138048000Y-92584000D01*
X137288000Y-100964000D02*
X137288000Y-93344000D01*
X138048000Y-92584000D02*
X139968000Y-92584000D01*
X144908000Y-92584000D02*
X142988000Y-92584000D01*
X145668000Y-100964000D02*
X142988000Y-100964000D01*
X137288000Y-100964000D02*
X139968000Y-100964000D01*
X136105000Y-99794000D02*
X136105000Y-98794000D01*
X134405000Y-98794000D02*
X134405000Y-99794000D01*
X156376000Y-105184000D02*
X156376000Y-106184000D01*
X158076000Y-106184000D02*
X158076000Y-105184000D01*
X169660000Y-117182000D02*
X170660000Y-117182000D01*
X170660000Y-115482000D02*
X169660000Y-115482000D01*
X151138000Y-115658000D02*
X152138000Y-115658000D01*
X152138000Y-113958000D02*
X151138000Y-113958000D01*
D13*
X138830000Y-106564000D02*
X135290000Y-106564000D01*
X138830000Y-104764000D02*
X135290000Y-104764000D01*
X137347500Y-106172000D02*
X137347500Y-105156000D01*
X136712500Y-105283000D02*
X137347500Y-105664000D01*
X136712500Y-106045000D02*
X136712500Y-105283000D01*
X137347500Y-105664000D02*
X136712500Y-106045000D01*
X137728500Y-105664000D02*
X137347500Y-105664000D01*
X136712500Y-105664000D02*
X136331500Y-105664000D01*
D12*
X136523000Y-111816000D02*
X136523000Y-110886000D01*
X136523000Y-108656000D02*
X136523000Y-109586000D01*
X136523000Y-108656000D02*
X134363000Y-108656000D01*
X136523000Y-111816000D02*
X135063000Y-111816000D01*
D13*
X135255000Y-93532500D02*
X135255000Y-93151500D01*
X135255000Y-94548500D02*
X135255000Y-94167500D01*
X135255000Y-94167500D02*
X134874000Y-93532500D01*
X134874000Y-93532500D02*
X135636000Y-93532500D01*
X135636000Y-93532500D02*
X135255000Y-94167500D01*
X134747000Y-94167500D02*
X135763000Y-94167500D01*
X136155000Y-95650000D02*
X136155000Y-92110000D01*
X134355000Y-95650000D02*
X134355000Y-92110000D01*
D12*
X136523000Y-117150000D02*
X135063000Y-117150000D01*
X136523000Y-113990000D02*
X134363000Y-113990000D01*
X136523000Y-113990000D02*
X136523000Y-114920000D01*
X136523000Y-117150000D02*
X136523000Y-116220000D01*
X149358000Y-106946000D02*
X149358000Y-108446000D01*
X149358000Y-106946000D02*
X152558000Y-106946000D01*
X152558000Y-108446000D02*
X149358000Y-108446000D01*
D14*
X159325000Y-91245000D02*
X159325000Y-91745000D01*
X159325000Y-91245000D02*
X159825000Y-91245000D01*
X159325000Y-95445000D02*
X159325000Y-94945000D01*
X159325000Y-95445000D02*
X159825000Y-95445000D01*
X169525000Y-95445000D02*
X169025000Y-95445000D01*
X169525000Y-95445000D02*
X169525000Y-94945000D01*
X169525000Y-91245000D02*
X169525000Y-91745000D01*
X169525000Y-91245000D02*
X169025000Y-91245000D01*
D12*
X174820000Y-98742000D02*
X173570000Y-98742000D01*
X174820000Y-99992000D02*
X174820000Y-98742000D01*
X170420000Y-110092000D02*
X170920000Y-110092000D01*
X170920000Y-110192000D02*
X170420000Y-110192000D01*
X170920000Y-109992000D02*
X170920000Y-110192000D01*
X170420000Y-109992000D02*
X170920000Y-109992000D01*
X170420000Y-108092000D02*
X170920000Y-108092000D01*
X170920000Y-108192000D02*
X170420000Y-108192000D01*
X170920000Y-107992000D02*
X170920000Y-108192000D01*
X170420000Y-107992000D02*
X170920000Y-107992000D01*
X170420000Y-106092000D02*
X170920000Y-106092000D01*
X170920000Y-106192000D02*
X170420000Y-106192000D01*
X170920000Y-105992000D02*
X170920000Y-106192000D01*
X170420000Y-105992000D02*
X170920000Y-105992000D01*
X170420000Y-104092000D02*
X170920000Y-104092000D01*
X170920000Y-104192000D02*
X170420000Y-104192000D01*
X170920000Y-103992000D02*
X170920000Y-104192000D01*
X170420000Y-103992000D02*
X170920000Y-103992000D01*
X170420000Y-102092000D02*
X170920000Y-102092000D01*
X170920000Y-102192000D02*
X170420000Y-102192000D01*
X170920000Y-101992000D02*
X170920000Y-102192000D01*
X170420000Y-101992000D02*
X170920000Y-101992000D01*
X174620000Y-100792000D02*
X174620000Y-100492000D01*
X174720000Y-100492000D02*
X174520000Y-100492000D01*
X174720000Y-100792000D02*
X174720000Y-100492000D01*
X174520000Y-100792000D02*
X174720000Y-100792000D01*
X171920000Y-113142000D02*
X171920000Y-112542000D01*
X173220000Y-113142000D02*
X173220000Y-112542000D01*
X171920000Y-99042000D02*
X171920000Y-99642000D01*
X173220000Y-99042000D02*
X173220000Y-99642000D01*
X173920000Y-110592000D02*
X174520000Y-110592000D01*
X173920000Y-112542000D02*
X173920000Y-110592000D01*
X170420000Y-112542000D02*
X173920000Y-112542000D01*
X170420000Y-99642000D02*
X170420000Y-112542000D01*
X173920000Y-99642000D02*
X170420000Y-99642000D01*
X173920000Y-101592000D02*
X173920000Y-99642000D01*
X174520000Y-101592000D02*
X173920000Y-101592000D01*
X174520000Y-113142000D02*
X174520000Y-99042000D01*
X169820000Y-113142000D02*
X174520000Y-113142000D01*
X169820000Y-99042000D02*
X169820000Y-113142000D01*
X174520000Y-99042000D02*
X169820000Y-99042000D01*
X153768000Y-100350000D02*
X153368000Y-100350000D01*
X153768000Y-98850000D02*
X153768000Y-100350000D01*
X151968000Y-100350000D02*
X148768000Y-100350000D01*
X146968000Y-100350000D02*
X146968000Y-98850000D01*
X147318000Y-100350000D02*
X146968000Y-100350000D01*
X143649000Y-110354000D02*
X142449000Y-110354000D01*
X142449000Y-108594000D02*
X143649000Y-108594000D01*
X142449000Y-115452000D02*
X143649000Y-115452000D01*
X143649000Y-117212000D02*
X142449000Y-117212000D01*
X161810000Y-106798000D02*
X160610000Y-106798000D01*
X160610000Y-105038000D02*
X161810000Y-105038000D01*
X160610000Y-97418000D02*
X161810000Y-97418000D01*
X161810000Y-99178000D02*
X160610000Y-99178000D01*
X143395000Y-106544000D02*
X142195000Y-106544000D01*
X142195000Y-104784000D02*
X143395000Y-104784000D01*
X142529000Y-113166000D02*
X143729000Y-113166000D01*
X143729000Y-114926000D02*
X142529000Y-114926000D01*
X142355000Y-110880000D02*
X143555000Y-110880000D01*
X143555000Y-112640000D02*
X142355000Y-112640000D01*
X167050000Y-98924000D02*
X165850000Y-98924000D01*
X165850000Y-97164000D02*
X167050000Y-97164000D01*
X165850000Y-100466000D02*
X167050000Y-100466000D01*
X167050000Y-102226000D02*
X165850000Y-102226000D01*
X150958000Y-110372000D02*
X152158000Y-110372000D01*
X152158000Y-112132000D02*
X150958000Y-112132000D01*
X161990000Y-100948000D02*
X160590000Y-100948000D01*
X160590000Y-103268000D02*
X162490000Y-103268000D01*
D13*
X157923000Y-108949600D02*
X157923000Y-109904600D01*
X165673000Y-108949600D02*
X165673000Y-109304600D01*
X165673000Y-117059600D02*
X165673000Y-116704600D01*
X157923000Y-117059600D02*
X157923000Y-116704600D01*
X157923000Y-108949600D02*
X165673000Y-108949600D01*
X157923000Y-117059600D02*
X165673000Y-117059600D01*
X157923000Y-109904600D02*
X156398000Y-109904600D01*
X123297666Y-114752380D02*
X123297666Y-115466666D01*
X123250047Y-115609523D01*
X123154809Y-115704761D01*
X123011952Y-115752380D01*
X122916714Y-115752380D01*
X124297666Y-115752380D02*
X123726238Y-115752380D01*
X124011952Y-115752380D02*
X124011952Y-114752380D01*
X123916714Y-114895238D01*
X123821476Y-114990476D01*
X123726238Y-115038095D01*
X155833142Y-100516666D02*
X155880761Y-100564285D01*
X155928380Y-100707142D01*
X155928380Y-100802380D01*
X155880761Y-100945238D01*
X155785523Y-101040476D01*
X155690285Y-101088095D01*
X155499809Y-101135714D01*
X155356952Y-101135714D01*
X155166476Y-101088095D01*
X155071238Y-101040476D01*
X154976000Y-100945238D01*
X154928380Y-100802380D01*
X154928380Y-100707142D01*
X154976000Y-100564285D01*
X155023619Y-100516666D01*
X155928380Y-99564285D02*
X155928380Y-100135714D01*
X155928380Y-99850000D02*
X154928380Y-99850000D01*
X155071238Y-99945238D01*
X155166476Y-100040476D01*
X155214095Y-100135714D01*
X138263333Y-101957142D02*
X138215714Y-102004761D01*
X138072857Y-102052380D01*
X137977619Y-102052380D01*
X137834761Y-102004761D01*
X137739523Y-101909523D01*
X137691904Y-101814285D01*
X137644285Y-101623809D01*
X137644285Y-101480952D01*
X137691904Y-101290476D01*
X137739523Y-101195238D01*
X137834761Y-101100000D01*
X137977619Y-101052380D01*
X138072857Y-101052380D01*
X138215714Y-101100000D01*
X138263333Y-101147619D01*
X138644285Y-101147619D02*
X138691904Y-101100000D01*
X138787142Y-101052380D01*
X139025238Y-101052380D01*
X139120476Y-101100000D01*
X139168095Y-101147619D01*
X139215714Y-101242857D01*
X139215714Y-101338095D01*
X139168095Y-101480952D01*
X138596666Y-102052380D01*
X139215714Y-102052380D01*
X137649428Y-92374952D02*
X137649428Y-91613047D01*
X138030380Y-91994000D02*
X137268476Y-91994000D01*
X135088333Y-102592142D02*
X135040714Y-102639761D01*
X134897857Y-102687380D01*
X134802619Y-102687380D01*
X134659761Y-102639761D01*
X134564523Y-102544523D01*
X134516904Y-102449285D01*
X134469285Y-102258809D01*
X134469285Y-102115952D01*
X134516904Y-101925476D01*
X134564523Y-101830238D01*
X134659761Y-101735000D01*
X134802619Y-101687380D01*
X134897857Y-101687380D01*
X135040714Y-101735000D01*
X135088333Y-101782619D01*
X135421666Y-101687380D02*
X136040714Y-101687380D01*
X135707380Y-102068333D01*
X135850238Y-102068333D01*
X135945476Y-102115952D01*
X135993095Y-102163571D01*
X136040714Y-102258809D01*
X136040714Y-102496904D01*
X135993095Y-102592142D01*
X135945476Y-102639761D01*
X135850238Y-102687380D01*
X135564523Y-102687380D01*
X135469285Y-102639761D01*
X135421666Y-102592142D01*
X155833142Y-105850666D02*
X155880761Y-105898285D01*
X155928380Y-106041142D01*
X155928380Y-106136380D01*
X155880761Y-106279238D01*
X155785523Y-106374476D01*
X155690285Y-106422095D01*
X155499809Y-106469714D01*
X155356952Y-106469714D01*
X155166476Y-106422095D01*
X155071238Y-106374476D01*
X154976000Y-106279238D01*
X154928380Y-106136380D01*
X154928380Y-106041142D01*
X154976000Y-105898285D01*
X155023619Y-105850666D01*
X155261714Y-104993523D02*
X155928380Y-104993523D01*
X154880761Y-105231619D02*
X155595047Y-105469714D01*
X155595047Y-104850666D01*
X169993333Y-114939142D02*
X169945714Y-114986761D01*
X169802857Y-115034380D01*
X169707619Y-115034380D01*
X169564761Y-114986761D01*
X169469523Y-114891523D01*
X169421904Y-114796285D01*
X169374285Y-114605809D01*
X169374285Y-114462952D01*
X169421904Y-114272476D01*
X169469523Y-114177238D01*
X169564761Y-114082000D01*
X169707619Y-114034380D01*
X169802857Y-114034380D01*
X169945714Y-114082000D01*
X169993333Y-114129619D01*
X170898095Y-114034380D02*
X170421904Y-114034380D01*
X170374285Y-114510571D01*
X170421904Y-114462952D01*
X170517142Y-114415333D01*
X170755238Y-114415333D01*
X170850476Y-114462952D01*
X170898095Y-114510571D01*
X170945714Y-114605809D01*
X170945714Y-114843904D01*
X170898095Y-114939142D01*
X170850476Y-114986761D01*
X170755238Y-115034380D01*
X170517142Y-115034380D01*
X170421904Y-114986761D01*
X170374285Y-114939142D01*
X151471333Y-113387142D02*
X151423714Y-113434761D01*
X151280857Y-113482380D01*
X151185619Y-113482380D01*
X151042761Y-113434761D01*
X150947523Y-113339523D01*
X150899904Y-113244285D01*
X150852285Y-113053809D01*
X150852285Y-112910952D01*
X150899904Y-112720476D01*
X150947523Y-112625238D01*
X151042761Y-112530000D01*
X151185619Y-112482380D01*
X151280857Y-112482380D01*
X151423714Y-112530000D01*
X151471333Y-112577619D01*
X152328476Y-112482380D02*
X152138000Y-112482380D01*
X152042761Y-112530000D01*
X151995142Y-112577619D01*
X151899904Y-112720476D01*
X151852285Y-112910952D01*
X151852285Y-113291904D01*
X151899904Y-113387142D01*
X151947523Y-113434761D01*
X152042761Y-113482380D01*
X152233238Y-113482380D01*
X152328476Y-113434761D01*
X152376095Y-113387142D01*
X152423714Y-113291904D01*
X152423714Y-113053809D01*
X152376095Y-112958571D01*
X152328476Y-112910952D01*
X152233238Y-112863333D01*
X152042761Y-112863333D01*
X151947523Y-112910952D01*
X151899904Y-112958571D01*
X151852285Y-113053809D01*
X136291904Y-104338380D02*
X136291904Y-103338380D01*
X136530000Y-103338380D01*
X136672857Y-103386000D01*
X136768095Y-103481238D01*
X136815714Y-103576476D01*
X136863333Y-103766952D01*
X136863333Y-103909809D01*
X136815714Y-104100285D01*
X136768095Y-104195523D01*
X136672857Y-104290761D01*
X136530000Y-104338380D01*
X136291904Y-104338380D01*
X137815714Y-104338380D02*
X137244285Y-104338380D01*
X137530000Y-104338380D02*
X137530000Y-103338380D01*
X137434761Y-103481238D01*
X137339523Y-103576476D01*
X137244285Y-103624095D01*
X135024904Y-108188380D02*
X135024904Y-107188380D01*
X135263000Y-107188380D01*
X135405857Y-107236000D01*
X135501095Y-107331238D01*
X135548714Y-107426476D01*
X135596333Y-107616952D01*
X135596333Y-107759809D01*
X135548714Y-107950285D01*
X135501095Y-108045523D01*
X135405857Y-108140761D01*
X135263000Y-108188380D01*
X135024904Y-108188380D01*
X135977285Y-107283619D02*
X136024904Y-107236000D01*
X136120142Y-107188380D01*
X136358238Y-107188380D01*
X136453476Y-107236000D01*
X136501095Y-107283619D01*
X136548714Y-107378857D01*
X136548714Y-107474095D01*
X136501095Y-107616952D01*
X135929666Y-108188380D01*
X136548714Y-108188380D01*
X133929380Y-94588095D02*
X132929380Y-94588095D01*
X132929380Y-94350000D01*
X132977000Y-94207142D01*
X133072238Y-94111904D01*
X133167476Y-94064285D01*
X133357952Y-94016666D01*
X133500809Y-94016666D01*
X133691285Y-94064285D01*
X133786523Y-94111904D01*
X133881761Y-94207142D01*
X133929380Y-94350000D01*
X133929380Y-94588095D01*
X132929380Y-93683333D02*
X132929380Y-93064285D01*
X133310333Y-93397619D01*
X133310333Y-93254761D01*
X133357952Y-93159523D01*
X133405571Y-93111904D01*
X133500809Y-93064285D01*
X133738904Y-93064285D01*
X133834142Y-93111904D01*
X133881761Y-93159523D01*
X133929380Y-93254761D01*
X133929380Y-93540476D01*
X133881761Y-93635714D01*
X133834142Y-93683333D01*
X135024904Y-113522380D02*
X135024904Y-112522380D01*
X135263000Y-112522380D01*
X135405857Y-112570000D01*
X135501095Y-112665238D01*
X135548714Y-112760476D01*
X135596333Y-112950952D01*
X135596333Y-113093809D01*
X135548714Y-113284285D01*
X135501095Y-113379523D01*
X135405857Y-113474761D01*
X135263000Y-113522380D01*
X135024904Y-113522380D01*
X136453476Y-112855714D02*
X136453476Y-113522380D01*
X136215380Y-112474761D02*
X135977285Y-113189047D01*
X136596333Y-113189047D01*
X150819904Y-106448380D02*
X150819904Y-105448380D01*
X151058000Y-105448380D01*
X151200857Y-105496000D01*
X151296095Y-105591238D01*
X151343714Y-105686476D01*
X151391333Y-105876952D01*
X151391333Y-106019809D01*
X151343714Y-106210285D01*
X151296095Y-106305523D01*
X151200857Y-106400761D01*
X151058000Y-106448380D01*
X150819904Y-106448380D01*
X152296095Y-105448380D02*
X151819904Y-105448380D01*
X151772285Y-105924571D01*
X151819904Y-105876952D01*
X151915142Y-105829333D01*
X152153238Y-105829333D01*
X152248476Y-105876952D01*
X152296095Y-105924571D01*
X152343714Y-106019809D01*
X152343714Y-106257904D01*
X152296095Y-106353142D01*
X152248476Y-106400761D01*
X152153238Y-106448380D01*
X151915142Y-106448380D01*
X151819904Y-106400761D01*
X151772285Y-106353142D01*
X126944380Y-95901735D02*
X125944380Y-95901735D01*
X125944380Y-95663640D01*
X125992000Y-95520782D01*
X126087238Y-95425544D01*
X126182476Y-95377925D01*
X126372952Y-95330306D01*
X126515809Y-95330306D01*
X126706285Y-95377925D01*
X126801523Y-95425544D01*
X126896761Y-95520782D01*
X126944380Y-95663640D01*
X126944380Y-95901735D01*
X125944380Y-94473163D02*
X125944380Y-94663640D01*
X125992000Y-94758878D01*
X126039619Y-94806497D01*
X126182476Y-94901735D01*
X126372952Y-94949354D01*
X126753904Y-94949354D01*
X126849142Y-94901735D01*
X126896761Y-94854116D01*
X126944380Y-94758878D01*
X126944380Y-94568401D01*
X126896761Y-94473163D01*
X126849142Y-94425544D01*
X126753904Y-94377925D01*
X126515809Y-94377925D01*
X126420571Y-94425544D01*
X126372952Y-94473163D01*
X126325333Y-94568401D01*
X126325333Y-94758878D01*
X126372952Y-94854116D01*
X126420571Y-94901735D01*
X126515809Y-94949354D01*
X170227666Y-92797380D02*
X170227666Y-93511666D01*
X170180047Y-93654523D01*
X170084809Y-93749761D01*
X169941952Y-93797380D01*
X169846714Y-93797380D01*
X170656238Y-92892619D02*
X170703857Y-92845000D01*
X170799095Y-92797380D01*
X171037190Y-92797380D01*
X171132428Y-92845000D01*
X171180047Y-92892619D01*
X171227666Y-92987857D01*
X171227666Y-93083095D01*
X171180047Y-93225952D01*
X170608619Y-93797380D01*
X171227666Y-93797380D01*
X172386666Y-97242380D02*
X172386666Y-97956666D01*
X172339047Y-98099523D01*
X172243809Y-98194761D01*
X172100952Y-98242380D01*
X172005714Y-98242380D01*
X172767619Y-97242380D02*
X173386666Y-97242380D01*
X173053333Y-97623333D01*
X173196190Y-97623333D01*
X173291428Y-97670952D01*
X173339047Y-97718571D01*
X173386666Y-97813809D01*
X173386666Y-98051904D01*
X173339047Y-98147142D01*
X173291428Y-98194761D01*
X173196190Y-98242380D01*
X172910476Y-98242380D01*
X172815238Y-98194761D01*
X172767619Y-98147142D01*
X146365619Y-103981238D02*
X146318000Y-104076476D01*
X146222761Y-104171714D01*
X146079904Y-104314571D01*
X146032285Y-104409809D01*
X146032285Y-104505047D01*
X146270380Y-104457428D02*
X146222761Y-104552666D01*
X146127523Y-104647904D01*
X145937047Y-104695523D01*
X145603714Y-104695523D01*
X145413238Y-104647904D01*
X145318000Y-104552666D01*
X145270380Y-104457428D01*
X145270380Y-104266952D01*
X145318000Y-104171714D01*
X145413238Y-104076476D01*
X145603714Y-104028857D01*
X145937047Y-104028857D01*
X146127523Y-104076476D01*
X146222761Y-104171714D01*
X146270380Y-104266952D01*
X146270380Y-104457428D01*
X146270380Y-103076476D02*
X146270380Y-103647904D01*
X146270380Y-103362190D02*
X145270380Y-103362190D01*
X145413238Y-103457428D01*
X145508476Y-103552666D01*
X145556095Y-103647904D01*
X139406333Y-109926380D02*
X139073000Y-109450190D01*
X138834904Y-109926380D02*
X138834904Y-108926380D01*
X139215857Y-108926380D01*
X139311095Y-108974000D01*
X139358714Y-109021619D01*
X139406333Y-109116857D01*
X139406333Y-109259714D01*
X139358714Y-109354952D01*
X139311095Y-109402571D01*
X139215857Y-109450190D01*
X138834904Y-109450190D01*
X140358714Y-109926380D02*
X139787285Y-109926380D01*
X140073000Y-109926380D02*
X140073000Y-108926380D01*
X139977761Y-109069238D01*
X139882523Y-109164476D01*
X139787285Y-109212095D01*
X139406333Y-116784380D02*
X139073000Y-116308190D01*
X138834904Y-116784380D02*
X138834904Y-115784380D01*
X139215857Y-115784380D01*
X139311095Y-115832000D01*
X139358714Y-115879619D01*
X139406333Y-115974857D01*
X139406333Y-116117714D01*
X139358714Y-116212952D01*
X139311095Y-116260571D01*
X139215857Y-116308190D01*
X138834904Y-116308190D01*
X139787285Y-115879619D02*
X139834904Y-115832000D01*
X139930142Y-115784380D01*
X140168238Y-115784380D01*
X140263476Y-115832000D01*
X140311095Y-115879619D01*
X140358714Y-115974857D01*
X140358714Y-116070095D01*
X140311095Y-116212952D01*
X139739666Y-116784380D01*
X140358714Y-116784380D01*
X164425333Y-106370380D02*
X164092000Y-105894190D01*
X163853904Y-106370380D02*
X163853904Y-105370380D01*
X164234857Y-105370380D01*
X164330095Y-105418000D01*
X164377714Y-105465619D01*
X164425333Y-105560857D01*
X164425333Y-105703714D01*
X164377714Y-105798952D01*
X164330095Y-105846571D01*
X164234857Y-105894190D01*
X163853904Y-105894190D01*
X164758666Y-105370380D02*
X165377714Y-105370380D01*
X165044380Y-105751333D01*
X165187238Y-105751333D01*
X165282476Y-105798952D01*
X165330095Y-105846571D01*
X165377714Y-105941809D01*
X165377714Y-106179904D01*
X165330095Y-106275142D01*
X165282476Y-106322761D01*
X165187238Y-106370380D01*
X164901523Y-106370380D01*
X164806285Y-106322761D01*
X164758666Y-106275142D01*
X161043333Y-100450380D02*
X160710000Y-99974190D01*
X160471904Y-100450380D02*
X160471904Y-99450380D01*
X160852857Y-99450380D01*
X160948095Y-99498000D01*
X160995714Y-99545619D01*
X161043333Y-99640857D01*
X161043333Y-99783714D01*
X160995714Y-99878952D01*
X160948095Y-99926571D01*
X160852857Y-99974190D01*
X160471904Y-99974190D01*
X161900476Y-99783714D02*
X161900476Y-100450380D01*
X161662380Y-99402761D02*
X161424285Y-100117047D01*
X162043333Y-100117047D01*
X142628333Y-104416380D02*
X142295000Y-103940190D01*
X142056904Y-104416380D02*
X142056904Y-103416380D01*
X142437857Y-103416380D01*
X142533095Y-103464000D01*
X142580714Y-103511619D01*
X142628333Y-103606857D01*
X142628333Y-103749714D01*
X142580714Y-103844952D01*
X142533095Y-103892571D01*
X142437857Y-103940190D01*
X142056904Y-103940190D01*
X143533095Y-103416380D02*
X143056904Y-103416380D01*
X143009285Y-103892571D01*
X143056904Y-103844952D01*
X143152142Y-103797333D01*
X143390238Y-103797333D01*
X143485476Y-103844952D01*
X143533095Y-103892571D01*
X143580714Y-103987809D01*
X143580714Y-104225904D01*
X143533095Y-104321142D01*
X143485476Y-104368761D01*
X143390238Y-104416380D01*
X143152142Y-104416380D01*
X143056904Y-104368761D01*
X143009285Y-104321142D01*
X139486333Y-114498380D02*
X139153000Y-114022190D01*
X138914904Y-114498380D02*
X138914904Y-113498380D01*
X139295857Y-113498380D01*
X139391095Y-113546000D01*
X139438714Y-113593619D01*
X139486333Y-113688857D01*
X139486333Y-113831714D01*
X139438714Y-113926952D01*
X139391095Y-113974571D01*
X139295857Y-114022190D01*
X138914904Y-114022190D01*
X140343476Y-113498380D02*
X140153000Y-113498380D01*
X140057761Y-113546000D01*
X140010142Y-113593619D01*
X139914904Y-113736476D01*
X139867285Y-113926952D01*
X139867285Y-114307904D01*
X139914904Y-114403142D01*
X139962523Y-114450761D01*
X140057761Y-114498380D01*
X140248238Y-114498380D01*
X140343476Y-114450761D01*
X140391095Y-114403142D01*
X140438714Y-114307904D01*
X140438714Y-114069809D01*
X140391095Y-113974571D01*
X140343476Y-113926952D01*
X140248238Y-113879333D01*
X140057761Y-113879333D01*
X139962523Y-113926952D01*
X139914904Y-113974571D01*
X139867285Y-114069809D01*
X139152333Y-112212380D02*
X138819000Y-111736190D01*
X138580904Y-112212380D02*
X138580904Y-111212380D01*
X138961857Y-111212380D01*
X139057095Y-111260000D01*
X139104714Y-111307619D01*
X139152333Y-111402857D01*
X139152333Y-111545714D01*
X139104714Y-111640952D01*
X139057095Y-111688571D01*
X138961857Y-111736190D01*
X138580904Y-111736190D01*
X139485666Y-111212380D02*
X140152333Y-111212380D01*
X139723761Y-112212380D01*
X166203333Y-100147380D02*
X165870000Y-99671190D01*
X165631904Y-100147380D02*
X165631904Y-99147380D01*
X166012857Y-99147380D01*
X166108095Y-99195000D01*
X166155714Y-99242619D01*
X166203333Y-99337857D01*
X166203333Y-99480714D01*
X166155714Y-99575952D01*
X166108095Y-99623571D01*
X166012857Y-99671190D01*
X165631904Y-99671190D01*
X166774761Y-99575952D02*
X166679523Y-99528333D01*
X166631904Y-99480714D01*
X166584285Y-99385476D01*
X166584285Y-99337857D01*
X166631904Y-99242619D01*
X166679523Y-99195000D01*
X166774761Y-99147380D01*
X166965238Y-99147380D01*
X167060476Y-99195000D01*
X167108095Y-99242619D01*
X167155714Y-99337857D01*
X167155714Y-99385476D01*
X167108095Y-99480714D01*
X167060476Y-99528333D01*
X166965238Y-99575952D01*
X166774761Y-99575952D01*
X166679523Y-99623571D01*
X166631904Y-99671190D01*
X166584285Y-99766428D01*
X166584285Y-99956904D01*
X166631904Y-100052142D01*
X166679523Y-100099761D01*
X166774761Y-100147380D01*
X166965238Y-100147380D01*
X167060476Y-100099761D01*
X167108095Y-100052142D01*
X167155714Y-99956904D01*
X167155714Y-99766428D01*
X167108095Y-99671190D01*
X167060476Y-99623571D01*
X166965238Y-99575952D01*
X166283333Y-103322380D02*
X165950000Y-102846190D01*
X165711904Y-103322380D02*
X165711904Y-102322380D01*
X166092857Y-102322380D01*
X166188095Y-102370000D01*
X166235714Y-102417619D01*
X166283333Y-102512857D01*
X166283333Y-102655714D01*
X166235714Y-102750952D01*
X166188095Y-102798571D01*
X166092857Y-102846190D01*
X165711904Y-102846190D01*
X166759523Y-103322380D02*
X166950000Y-103322380D01*
X167045238Y-103274761D01*
X167092857Y-103227142D01*
X167188095Y-103084285D01*
X167235714Y-102893809D01*
X167235714Y-102512857D01*
X167188095Y-102417619D01*
X167140476Y-102370000D01*
X167045238Y-102322380D01*
X166854761Y-102322380D01*
X166759523Y-102370000D01*
X166711904Y-102417619D01*
X166664285Y-102512857D01*
X166664285Y-102750952D01*
X166711904Y-102846190D01*
X166759523Y-102893809D01*
X166854761Y-102941428D01*
X167045238Y-102941428D01*
X167140476Y-102893809D01*
X167188095Y-102846190D01*
X167235714Y-102750952D01*
X150915142Y-110004380D02*
X150581809Y-109528190D01*
X150343714Y-110004380D02*
X150343714Y-109004380D01*
X150724666Y-109004380D01*
X150819904Y-109052000D01*
X150867523Y-109099619D01*
X150915142Y-109194857D01*
X150915142Y-109337714D01*
X150867523Y-109432952D01*
X150819904Y-109480571D01*
X150724666Y-109528190D01*
X150343714Y-109528190D01*
X151867523Y-110004380D02*
X151296095Y-110004380D01*
X151581809Y-110004380D02*
X151581809Y-109004380D01*
X151486571Y-109147238D01*
X151391333Y-109242476D01*
X151296095Y-109290095D01*
X152486571Y-109004380D02*
X152581809Y-109004380D01*
X152677047Y-109052000D01*
X152724666Y-109099619D01*
X152772285Y-109194857D01*
X152819904Y-109385333D01*
X152819904Y-109623428D01*
X152772285Y-109813904D01*
X152724666Y-109909142D01*
X152677047Y-109956761D01*
X152581809Y-110004380D01*
X152486571Y-110004380D01*
X152391333Y-109956761D01*
X152343714Y-109909142D01*
X152296095Y-109813904D01*
X152248476Y-109623428D01*
X152248476Y-109385333D01*
X152296095Y-109194857D01*
X152343714Y-109099619D01*
X152391333Y-109052000D01*
X152486571Y-109004380D01*
X160528095Y-103560380D02*
X160528095Y-104369904D01*
X160575714Y-104465142D01*
X160623333Y-104512761D01*
X160718571Y-104560380D01*
X160909047Y-104560380D01*
X161004285Y-104512761D01*
X161051904Y-104465142D01*
X161099523Y-104369904D01*
X161099523Y-103560380D01*
X162099523Y-104560380D02*
X161528095Y-104560380D01*
X161813809Y-104560380D02*
X161813809Y-103560380D01*
X161718571Y-103703238D01*
X161623333Y-103798476D01*
X161528095Y-103846095D01*
X161036095Y-107476980D02*
X161036095Y-108286504D01*
X161083714Y-108381742D01*
X161131333Y-108429361D01*
X161226571Y-108476980D01*
X161417047Y-108476980D01*
X161512285Y-108429361D01*
X161559904Y-108381742D01*
X161607523Y-108286504D01*
X161607523Y-107476980D01*
X162036095Y-107572219D02*
X162083714Y-107524600D01*
X162178952Y-107476980D01*
X162417047Y-107476980D01*
X162512285Y-107524600D01*
X162559904Y-107572219D01*
X162607523Y-107667457D01*
X162607523Y-107762695D01*
X162559904Y-107905552D01*
X161988476Y-108476980D01*
X162607523Y-108476980D01*
M02*
